<svg xmlns="http://www.w3.org/2000/svg" width="40" height="40" viewBox="0 0 40 40" fill="none">
  <path fill-rule="evenodd" clip-rule="evenodd" d="M37 35H5V3C5 2.4 4.6 2 4 2C3.4 2 3 2.4 3 3V36C3 36.6 3.4 37 4 37H37C37.6 37 38 36.6 38 36C38 35.4 37.6 35 37 35ZM8 33C8.3 33 8.5 32.9 8.7 32.7L16.8 24.2L26.6 29.3C27.1 29.5 27.6 29.4 27.9 29L36.6 15.8C36.9 15.3 36.8 14.7 36.3 14.4C35.8 14.1 35.2 14.2 34.9 14.7L26.7 27.2L17.1 22C16.7 21.8 16.2 21.9 15.9 22.2L7.3 31.2C6.9 31.6 6.9 32.2 7.3 32.6C7.5 32.9 7.8 33 8 33ZM8.7 20.8C8.5 20.9 8.2 21 8 21C7.7 21 7.5 20.9 7.3 20.6C6.9 20.2 7 19.6 7.4 19.2L16.8 11.1C17.1 10.8 17.5 10.8 17.9 11L24.8 14.8L33.3 6.3C33.7 5.9 34.3 5.9 34.7 6.3C35.1 6.7 35.1 7.3 34.7 7.7L25.7 16.7C25.4 17 24.9 17.1 24.5 16.9L17.6 13.1L8.7 20.8Z" fill="#49454E"/>
</svg>