<svg xmlns="http://www.w3.org/2000/svg" width="24" height="24" viewBox="0 0 24 24" fill="none">
  <path fill-rule="evenodd" clip-rule="evenodd" d="M7 3H17C18.3256 3.00156 19.5965 3.52885 20.5338 4.46619C21.4712 5.40353 21.9984 6.6744 22 8V16C21.9984 17.3256 21.4712 18.5965 20.5338 19.5338C19.5965 20.4712 18.3256 20.9984 17 21H7C5.6744 20.9984 4.40353 20.4712 3.46619 19.5338C2.52885 18.5965 2.00156 17.3256 2 16V8C2.00156 6.6744 2.52885 5.40353 3.46619 4.46619C4.40353 3.52885 5.6744 3.00156 7 3ZM19.1204 18.1204C19.6828 17.5579 19.9991 16.7954 20 16V8C19.9991 7.20462 19.6828 6.44206 19.1204 5.87964C18.5579 5.31722 17.7954 5.00087 17 5H7C6.20462 5.00087 5.44206 5.31722 4.87964 5.87964C4.31722 6.44206 4.00087 7.20462 4 8V16C4.00087 16.7954 4.31722 17.5579 4.87964 18.1204C5.44206 18.6828 6.20462 18.9991 7 19H17C17.7954 18.9991 18.5579 18.6828 19.1204 18.1204ZM10.4239 8.22099C10.7536 8.71433 10.9295 9.29435 10.9295 9.8877C10.9286 10.6831 10.6123 11.4456 10.0499 12.0081C9.48744 12.5705 8.72489 12.8868 7.92951 12.8877C7.33616 12.8877 6.75614 12.7117 6.26279 12.3821C5.76945 12.0525 5.38493 11.5839 5.15787 11.0357C4.9308 10.4876 4.87139 9.88437 4.98715 9.30243C5.10291 8.72048 5.38863 8.18593 5.80819 7.76638C6.22774 7.34682 6.76229 7.0611 7.34423 6.94534C7.92618 6.82959 8.52938 6.889 9.07756 7.11606C9.62573 7.34312 10.0943 7.72764 10.4239 8.22099ZM7.09804 9.33213C6.98815 9.49657 6.92951 9.68992 6.92951 9.8877C6.92985 10.1528 7.03532 10.407 7.22278 10.5944C7.41024 10.7819 7.66439 10.8874 7.92951 10.8877C8.12729 10.8877 8.32063 10.829 8.48508 10.7192C8.64952 10.6093 8.7777 10.4531 8.85339 10.2704C8.92907 10.0877 8.94888 9.88659 8.91029 9.69261C8.87171 9.49863 8.77646 9.32044 8.63661 9.18059C8.49676 9.04074 8.31858 8.9455 8.1246 8.90691C7.93061 8.86833 7.72955 8.88813 7.54682 8.96382C7.3641 9.0395 7.20792 9.16768 7.09804 9.33213ZM17.125 8.8877H12.875C12.6429 8.8877 12.4204 8.99305 12.2563 9.18059C12.0922 9.36812 12 9.62248 12 9.8877C12 10.1529 12.0922 10.4073 12.2563 10.5948C12.4204 10.7823 12.6429 10.8877 12.875 10.8877H17.125C17.3571 10.8877 17.5796 10.7823 17.7437 10.5948C17.9078 10.4073 18 10.1529 18 9.8877C18 9.62248 17.9078 9.36812 17.7437 9.18059C17.5796 8.99305 17.3571 8.8877 17.125 8.8877ZM7 15H17C17.2652 15 17.5196 15.1054 17.7071 15.2929C17.8946 15.4804 18 15.7348 18 16C18 16.2652 17.8946 16.5196 17.7071 16.7071C17.5196 16.8946 17.2652 17 17 17H7C6.73478 17 6.48043 16.8946 6.29289 16.7071C6.10536 16.5196 6 16.2652 6 16C6 15.7348 6.10536 15.4804 6.29289 15.2929C6.48043 15.1054 6.73478 15 7 15Z" fill="#49454E"/>
</svg>