<svg xmlns="http://www.w3.org/2000/svg" width="40" height="40" viewBox="0 0 40 40" fill="none">
  <path fill-rule="evenodd" clip-rule="evenodd" d="M2 20C2 10.0746 10.0746 2 20 2C29.9254 2 38 10.0746 38 20C38 29.9254 29.9254 38 20 38C10.0746 38 2 29.9254 2 20ZM5.93443 20C5.93443 27.756 12.244 34.0656 20 34.0656C27.756 34.0656 34.0656 27.756 34.0656 20C34.0656 12.2444 27.756 5.93443 20 5.93443C12.244 5.93443 5.93443 12.2444 5.93443 20ZM21.5581 12.4776V20.0218L26.7908 25.2543C27.3865 25.8496 27.3861 26.8151 26.7908 27.4108C26.1955 28.0065 25.2301 28.0065 24.6344 27.4108L18.955 21.7319C18.6383 21.4151 18.4954 20.9941 18.5155 20.5794C18.515 20.5687 18.5135 20.5583 18.512 20.5479C18.5102 20.535 18.5084 20.5222 18.5084 20.509V12.4776C18.5084 11.6352 19.1911 10.9526 20.0334 10.9526C20.8754 10.9526 21.5581 11.6352 21.5581 12.4776Z" fill="#49454E"/>
</svg>