<svg xmlns="http://www.w3.org/2000/svg" width="40" height="40" viewBox="0 0 40 40" fill="none">
  <path fill-rule="evenodd" clip-rule="evenodd" d="M30 5H36C36.6 5 37 5.4 37 6V36C37 36.6 36.6 37 36 37H5C4.4 37 4 36.6 4 36V6C4 5.4 4.4 5 5 5H11V4C11 3.4 11.4 3 12 3C12.6 3 13 3.4 13 4V5H28V4C28 3.4 28.4 3 29 3C29.6 3 30 3.4 30 4V5ZM35 13H6V35H35V13ZM13 8C13 8.6 12.6 9 12 9C11.4 9 11 8.6 11 8V7H6V11H35V7H30V8C30 8.6 29.6 9 29 9C28.4 9 28 8.6 28 8V7H13V8ZM26.6 20.8C27 20.8 27.4 21.1 27.5 21.5C27.7 21.9 27.5 22.3 27.2 22.5L24.3 25L25.2 28.7C25.3 29.1 25.1 29.5 24.8 29.7C24.6 29.8 24.4 29.9 24.2 29.9C24 29.9 23.9 29.9 23.7 29.8L20.4 27.8L17.2 29.8C16.9 30.1 16.4 30 16.1 29.8C15.8 29.6 15.6 29.2 15.7 28.8L16.6 25.1L13.7 22.6C13.4 22.3 13.2 21.9 13.4 21.5C13.6 21.1 13.9 20.8 14.3 20.8L18.1 20.5L19.6 17C19.7 16.6 20.1 16.4 20.5 16.4C20.9 16.4 21.2 16.6 21.4 17L22.8 20.5L26.6 20.8ZM22.3 25C22.2 24.6 22.3 24.2 22.6 24L24.2 22.7L22.2 22.5C21.9 22.5 21.5 22.2 21.4 21.9L20.6 20L19.8 21.8C19.7 22.1 19.4 22.4 19 22.4L17 22.6L18.5 23.9C18.8 24.2 18.9 24.5 18.8 24.9L18.3 26.9L20 25.9C20.1 25.8 20.3 25.8 20.5 25.8C20.7 25.8 20.8 25.8 21 25.9L22.8 27L22.3 25Z" fill="#49454E"/>
</svg>