<svg width="157" height="62" viewBox="0 0 157 62" fill="none" xmlns="http://www.w3.org/2000/svg">
<g opacity="0.8">
<path fill-rule="evenodd" clip-rule="evenodd" d="M140.238 0.0112025C144.168 0.215151 147.583 3.19406 148.727 7.69136C149.691 11.4765 150.826 17.7478 151.711 22.9975C152.156 25.6384 152.543 28.0475 152.818 29.7962C152.955 30.6708 153.065 31.3806 153.14 31.8722C153.178 32.1181 153.207 32.3094 153.227 32.4395L153.257 32.6385L153.257 32.6392C153.257 32.6394 153.257 32.6395 150.983 32.9815C148.709 33.3235 148.709 33.3235 148.709 33.3234L148.709 33.3229L148.68 33.1299C148.66 33.0021 148.631 32.8132 148.594 32.5699C148.519 32.0832 148.411 31.379 148.274 30.5107C148.001 28.7738 147.617 26.3821 147.176 23.7622C146.287 18.4904 145.18 12.4003 144.27 8.82599C143.541 5.96385 141.609 4.68814 139.999 4.60463C138.509 4.52729 136.44 5.4533 135.356 8.94131C134.047 13.1533 132.274 19.5001 130.822 24.8192C130.097 27.4733 129.455 29.8624 128.994 31.5879C128.764 32.4506 128.579 33.1472 128.451 33.628C128.387 33.8683 128.338 34.0547 128.305 34.1809L128.254 34.3723C128.254 34.3724 128.254 34.3725 126.03 33.7864C123.813 34.3959 123.813 34.3959 123.813 34.3958L123.812 34.3951L123.752 34.1755C123.712 34.0306 123.653 33.817 123.577 33.5428C123.425 32.9943 123.206 32.2032 122.935 31.234C122.393 29.2954 121.647 26.6454 120.83 23.799C119.185 18.0708 117.282 11.657 116.165 8.5847C115.287 6.17161 113.063 4.66812 111.26 4.69096C110.44 4.70136 109.584 5.0147 108.792 5.90062C107.962 6.82905 107.122 8.48481 106.684 11.2622C106.681 11.2805 106.678 11.2988 106.675 11.317L104.412 10.9035C106.675 11.317 106.675 11.3171 106.675 11.3174L106.605 11.6961C106.56 11.9443 106.494 12.3096 106.409 12.7772C106.239 13.7126 105.995 15.0577 105.7 16.696C105.11 19.9729 104.314 24.4215 103.491 29.11C101.838 38.5324 100.102 48.7924 99.6836 52.554C99.5281 53.9534 99.8777 54.8932 100.337 55.495C100.813 56.1189 101.519 56.5257 102.306 56.6584C103.801 56.9106 105.601 56.1768 106.203 53.7098C107.086 50.087 108.227 44.4997 109.153 39.7831C109.614 37.4322 110.02 35.3102 110.31 33.7759C110.455 33.0089 110.572 32.389 110.651 31.9612C110.691 31.7473 110.722 31.5814 110.743 31.4691L110.775 31.299C110.775 31.299 110.775 31.2989 113.036 31.7167C115.249 31.0885 115.249 31.0886 115.249 31.0887L115.478 31.8962C115.625 32.4131 115.836 33.156 116.093 34.0596C116.607 35.8668 117.304 38.3171 118.037 40.8894C119.504 46.0403 121.111 51.6629 121.682 53.6061C121.991 54.6564 123.619 56.1073 125.796 56.2122C127.886 56.3129 129.785 54.871 130.487 53.311C130.684 52.8731 131.177 51.3416 131.853 49.0427C132.503 46.8323 133.27 44.1065 134.004 41.4479C134.738 38.7913 135.437 36.2105 135.953 34.2933C136.211 33.3349 136.423 32.5428 136.571 31.9904C136.645 31.7142 136.702 31.498 136.741 31.351L136.801 31.1274L136.801 31.1267C136.801 31.1266 136.801 31.1266 139.024 31.7167C141.278 31.2614 141.278 31.2614 141.278 31.2616L141.278 31.2621L141.279 31.2643L141.314 31.4408C141.338 31.5581 141.373 31.7309 141.418 31.9533C141.507 32.3979 141.636 33.0405 141.795 33.8328C142.112 35.4172 142.547 37.6007 143.02 39.9967C143.963 44.7801 145.06 50.4382 145.659 53.8584C146.015 55.8922 147.718 56.9434 149.522 56.9143C150.413 56.8999 151.106 56.6088 151.507 56.2375C151.843 55.9266 152.13 55.4279 152.031 54.4998C151.684 51.2598 151.508 49.1894 151.42 47.9178C151.375 47.2816 151.352 46.8426 151.341 46.5549C151.335 46.411 151.332 46.3042 151.33 46.2289C151.329 46.1913 151.329 46.1614 151.328 46.1386C151.328 46.1272 151.328 46.1175 151.328 46.1095L151.328 46.0988L151.328 46.0923V46.0913C151.328 46.0908 151.328 46.0904 153.628 46.0904H151.328C151.328 44.8202 152.358 43.7906 153.628 43.7906C154.895 43.7906 155.923 44.8158 155.928 46.0821L155.928 46.0841C155.928 46.0897 155.928 46.1031 155.928 46.1252C155.929 46.1695 155.932 46.2477 155.936 46.3661C155.946 46.6031 155.966 46.9977 156.008 47.5977C156.092 48.7985 156.262 50.8103 156.604 54.0098C156.85 56.3015 156.093 58.2608 154.631 59.6136C153.234 60.906 151.375 61.4846 149.597 61.5133C146.064 61.5703 141.96 59.4017 141.128 54.6513C140.576 51.4945 139.584 46.3592 138.683 41.7809C138.602 42.0765 138.52 42.374 138.438 42.6724C137.701 45.3398 136.927 48.0942 136.266 50.3411C135.63 52.4995 135.04 54.4024 134.682 55.1986C133.314 58.238 129.808 61.0104 125.574 60.8065C121.879 60.6285 118.245 58.2226 117.269 54.9035C116.691 52.9369 115.078 47.2905 113.613 42.1498C113.566 41.9845 113.519 41.8196 113.472 41.6554C112.583 46.1549 111.52 51.3206 110.671 54.7998C109.478 59.6921 105.33 61.8329 101.541 61.194C99.6855 60.8811 97.9139 59.9009 96.6812 58.2861C95.4315 56.6492 94.8396 54.4987 95.1122 52.046C95.5502 48.1033 97.3207 37.665 98.9609 28.3153C99.785 23.6177 100.582 19.1618 101.173 15.8805C101.469 14.2398 101.713 12.8925 101.883 11.9553C101.968 11.4866 102.035 11.1205 102.08 10.8714L102.145 10.5168C102.674 7.19026 103.768 4.61806 105.364 2.83413C107.002 1.00269 109.073 0.118695 111.202 0.0917212C115.298 0.0398187 119.065 3.10144 120.487 7.01281C121.67 10.265 123.619 16.8451 125.251 22.5295C125.503 23.4058 125.748 24.2633 125.982 25.0873C126.113 24.6055 126.247 24.1115 126.385 23.6079C127.836 18.2904 129.628 11.8733 130.964 7.57604C132.524 2.5548 136.189 -0.198907 140.238 0.0112025ZM155.928 46.0887V46.0895V46.0887ZM139.024 31.7167L141.278 31.2616C141.067 30.214 140.161 29.4501 139.093 29.418C138.025 29.3858 137.075 30.0939 136.801 31.1267L139.024 31.7167ZM113.036 31.7167L115.249 31.0887C114.957 30.0609 113.995 29.3693 112.928 29.4195C111.861 29.4697 110.969 30.2484 110.775 31.299L113.036 31.7167ZM126.03 33.7864L123.813 34.3958C124.088 35.3985 125.003 36.0917 126.042 36.0862C127.082 36.0807 127.989 35.3779 128.254 34.3723L126.03 33.7864ZM151.325 35.2557C150.069 35.4446 148.898 34.5794 148.709 33.3234L150.983 32.9815L153.257 32.6395C153.446 33.8955 152.581 35.0669 151.325 35.2557ZM155.928 46.0882V46.0871L155.928 46.0847C155.928 46.0859 155.928 46.0871 155.928 46.0882Z" fill="#22191C"/>
<path fill-rule="evenodd" clip-rule="evenodd" d="M61.4172 56.7393C59.5685 56.7393 57.9902 55.1965 57.9902 53.1948V8.78189C57.9902 6.78945 59.5543 5.2515 61.3925 5.23783C61.4027 5.23797 61.4133 5.23805 61.4243 5.23805C61.4376 5.23805 61.4503 5.23794 61.4622 5.23774H72.9963C81.5097 5.23774 88.3737 12.0433 88.3737 20.3245C88.3737 26.977 83.9465 32.6754 77.7752 34.6613C77.041 34.8975 76.4742 35.486 76.2656 36.2285C76.057 36.9709 76.2344 37.7685 76.7381 38.3525L87.5039 50.8359L87.5041 50.8361C88.7796 52.3147 88.6324 54.5787 87.1936 55.8709C86.5395 56.4582 85.7412 56.7393 84.9489 56.7393C84.0098 56.7393 83.0721 56.3456 82.3895 55.554L80.6479 57.056L82.3895 55.554L68.8857 39.896C68.2579 39.1682 67.2438 38.9075 66.3429 39.2423C65.442 39.5771 64.8443 40.4369 64.8443 41.398V53.1948C64.8443 55.1965 63.266 56.7393 61.4172 56.7393ZM53.3906 53.1948C53.3906 57.6484 56.9407 61.3389 61.4172 61.3389C65.8938 61.3389 69.4439 57.6484 69.4439 53.1948V47.5861L78.9063 58.558C80.4879 60.3919 82.7111 61.3389 84.9489 61.3389C86.8438 61.3389 88.7451 60.6596 90.2669 59.2931L90.267 59.293C93.5768 56.3204 93.8915 51.1989 90.9871 47.8319C90.987 47.8318 90.9869 47.8317 90.9869 47.8316L82.2875 37.7444C88.6201 34.4523 92.9733 27.8977 92.9733 20.3245C92.9733 9.4314 83.9779 0.638134 72.9963 0.638134H61.4314C61.429 0.638134 61.4266 0.638142 61.4243 0.638149C61.422 0.638142 61.4196 0.638134 61.4172 0.638134C56.9407 0.638134 53.3906 4.32847 53.3906 8.78189V53.1948ZM64.9068 26.0535C64.9132 27.3235 65.9477 28.348 67.2177 28.3419C69.3845 28.3314 71.6472 28.3226 72.9963 28.3226C77.4449 28.3226 81.52 24.8702 81.52 20.3245C81.52 15.7787 77.4449 12.3264 72.9963 12.3264H67.1757C66.5646 12.3264 65.9787 12.5695 65.5472 13.0022C65.1158 13.4348 64.8742 14.0214 64.8759 14.6324C64.882 16.8872 64.8872 19.189 64.8872 20.3245C64.8872 21.6577 64.8961 23.8997 64.9068 26.0535ZM69.4959 23.7321C69.4905 22.3951 69.4868 21.1721 69.4868 20.3245C69.4868 19.5766 69.4846 18.3299 69.4813 16.926H72.9963C75.295 16.926 76.9204 18.6926 76.9204 20.3245C76.9204 21.9563 75.295 23.723 72.9963 23.723C72.1178 23.723 70.8598 23.7267 69.4959 23.7321Z" fill="#22191C"/>
<path fill-rule="evenodd" clip-rule="evenodd" d="M46.8338 5.79979C50.542 8.39773 51.4536 13.4662 48.9537 17.1874C46.3488 21.0647 41.103 21.984 37.3419 19.3506C35.3051 17.9246 32.9435 17.119 30.5199 17.001C28.0745 16.882 25.6333 17.4662 23.4689 18.7059C21.3022 19.9468 19.4873 21.803 18.2545 24.0892C17.0207 26.3771 16.4278 28.9905 16.5585 31.6296C16.6892 34.2686 17.5368 36.8004 18.9839 38.9388C20.4298 41.0753 22.4093 42.7252 24.6776 43.7298C26.9437 44.7334 29.4252 45.0618 31.8487 44.6884C32.4471 44.5962 32.9695 44.4821 33.4294 44.3478C34.3263 43.8766 35.3756 43.1196 36.772 41.9522C39.8691 37.86 46.1937 37.4191 49.7142 41.6634C52.5667 45.1024 52.1725 50.2027 48.7897 53.1564C48.721 53.2164 48.6512 53.2774 48.5804 53.3391C45.8964 56.4388 42.7168 58.3714 39.4733 59.5416C37.9246 60.217 36.2207 60.7563 34.3665 61.042C28.8061 61.8986 23.1277 61.1389 17.9812 58.8596C12.8366 56.5811 8.44659 52.8839 5.2867 48.2146C2.12796 43.5471 0.317245 38.0856 0.0380335 32.4485C-0.241169 26.8116 1.02069 21.1961 3.69662 16.2337C4.2734 15.1641 4.9113 14.1334 5.60607 13.1465L5.60868 13.1517C6.00944 12.4767 6.74567 12.0244 7.58756 12.0244C8.85771 12.0244 9.88736 13.054 9.88736 14.3242C9.88736 14.791 9.74831 15.2252 9.50937 15.5879L9.51252 15.5898C8.86612 16.4894 8.27542 17.4334 7.74513 18.4168C5.47006 22.6359 4.39407 27.417 4.63201 32.2209C4.86996 37.025 6.41304 41.6722 9.09599 45.6367C11.7795 49.602 15.4993 52.7298 19.8438 54.654C24.1892 56.5785 28.9783 57.2182 33.6661 56.496C35.1274 56.2709 36.4945 55.8344 37.771 55.2654C40.5091 54.301 43.1204 52.7042 45.3017 50.0949C45.4586 49.9587 45.6128 49.8242 45.7644 49.6918C47.2625 48.3836 47.4382 46.1241 46.174 44.5999C44.5988 42.7009 41.7277 42.9085 40.372 44.8203C40.3008 44.9207 40.2286 45.0191 40.1555 45.1154C38.36 46.6438 36.7576 47.8601 35.1538 48.6281C34.3406 48.8958 33.4725 49.0921 32.5491 49.2344C29.253 49.7422 25.8822 49.2938 22.815 47.9354C19.7468 46.5765 17.097 44.3574 15.1746 41.5167C13.2517 38.6753 12.1365 35.3293 11.9646 31.8572C11.7926 28.385 12.5714 24.9374 14.2059 21.9061C15.8401 18.8755 18.2607 16.3882 21.1829 14.7145C24.1042 13.0414 27.4154 12.2448 30.7436 12.4068C34.0416 12.5674 37.2388 13.6636 39.98 15.5828C41.6522 16.7536 43.9807 16.3416 45.1356 14.6224C46.2463 12.9692 45.8396 10.7194 44.1946 9.5669C40.3281 6.85805 35.7954 5.29688 31.1002 5.06833C26.667 4.85254 22.2661 5.83351 18.3351 7.89936L18.3319 7.8951C17.9462 8.18749 17.4654 8.36098 16.944 8.36098C15.6738 8.36098 14.6442 7.33132 14.6442 6.06117C14.6442 5.28358 15.0301 4.59613 15.6208 4.17988L15.599 4.14989C20.4 1.48535 25.8383 0.207144 31.3239 0.474162C36.894 0.745297 42.2628 2.59738 46.8338 5.79979Z" fill="#22191C"/>
</g>
</svg>
