<svg width="304" height="180" viewBox="0 0 304 180" fill="none" xmlns="http://www.w3.org/2000/svg">
<g opacity="0.3" clip-path="url(#clip0_3387_24146)">
<path fill-rule="evenodd" clip-rule="evenodd" d="M34.9951 40.6309C36.2653 40.6309 37.2949 39.6012 37.2949 38.3311V18.676H50.5047V38.3311C50.5047 39.6012 51.5343 40.6309 52.8045 40.6309C54.0746 40.6309 55.1043 39.6012 55.1043 38.3311V16.3762C55.1043 15.1061 54.0746 14.0764 52.8045 14.0764H34.9951C33.725 14.0764 32.6953 15.1061 32.6953 16.3762V38.3311C32.6953 39.6012 33.725 40.6309 34.9951 40.6309Z" fill="#514347"/>
<path opacity="0.78" fill-rule="evenodd" clip-rule="evenodd" d="M273.448 151.371C274.718 151.371 275.748 150.341 275.748 149.071V113.523H288.958V149.071C288.958 150.341 289.987 151.371 291.258 151.371C292.528 151.371 293.557 150.341 293.557 149.071V111.223C293.557 109.953 292.528 108.923 291.258 108.923H273.448C272.178 108.923 271.148 109.953 271.148 111.223V149.071C271.148 150.341 272.178 151.371 273.448 151.371Z" fill="#514347"/>
<path fill-rule="evenodd" clip-rule="evenodd" d="M-16.5199 115.982C-18.4473 115.982 -20.0098 114.42 -20.0098 112.493V100.787C-20.0098 98.8596 -18.4473 97.297 -16.5199 97.297H-9.65881C-8.38866 97.297 -7.359 96.2673 -7.359 94.9972V92.5077L-1.5363 96.842C-1.13941 97.1374 -0.657837 97.297 -0.163069 97.297H12.3552C13.6254 97.297 14.655 96.2673 14.655 94.9972C14.655 93.727 13.6254 92.6974 12.3552 92.6974H0.598921L-8.28558 86.084C-8.98314 85.5647 -9.91393 85.4833 -10.691 85.8736C-11.4681 86.2639 -11.9586 87.0592 -11.9586 87.9288V92.6974H-16.5199C-20.9878 92.6974 -24.6094 96.3194 -24.6094 100.787V112.493C-24.6094 116.96 -20.9878 120.582 -16.5199 120.582H20.2874C24.7553 120.582 28.3769 116.96 28.3769 112.493V104.467C28.3769 103.196 27.3472 102.167 26.0771 102.167C24.8069 102.167 23.7773 103.196 23.7773 104.467V112.493C23.7773 114.42 22.2148 115.982 20.2874 115.982H-16.5199Z" fill="#514347"/>
<path fill-rule="evenodd" clip-rule="evenodd" d="M24.537 106.793C25.1393 107.065 25.8296 107.065 26.4318 106.793C35.2928 102.787 39.7382 98.0605 41.9238 94.0932C43.0092 92.1229 43.5093 90.389 43.7325 89.1031C43.8438 88.4617 43.8859 87.9344 43.8984 87.5471C43.9046 87.3534 43.9034 87.1946 43.8998 87.0738C43.8984 87.0284 43.8967 86.9883 43.8949 86.9538C43.8544 80.9728 38.9888 76.1411 32.9981 76.1411C30.0829 76.1411 27.4377 77.2858 25.4845 79.1456C23.5312 77.2857 20.8858 76.1411 17.9708 76.1411C11.98 76.1411 7.11476 80.9729 7.07429 86.9537C7.07249 86.9883 7.07077 87.0283 7.0694 87.0737C7.06576 87.1945 7.06459 87.3533 7.07081 87.547C7.08324 87.9343 7.12529 88.4617 7.23662 89.1031C7.45981 90.3889 7.95981 92.1228 9.04521 94.0932C11.2307 98.0605 15.676 102.787 24.537 106.793ZM11.6675 87.1976C11.6716 87.1415 11.6736 87.0852 11.6736 87.0289C11.6736 83.5582 14.4907 80.7407 17.9708 80.7407C20.3351 80.7407 22.3971 82.0417 23.4759 83.976C23.882 84.7043 24.6505 85.1556 25.4843 85.1557C26.3182 85.1557 27.0867 84.7044 27.4929 83.9762C28.5721 82.0416 30.6339 80.7407 32.9981 80.7407C36.4783 80.7407 39.2955 83.5583 39.2955 87.0289C39.2955 87.0852 39.2976 87.1415 39.3017 87.1976C39.3019 87.2007 39.302 87.2055 39.3022 87.2122C39.3031 87.2415 39.3042 87.3048 39.3011 87.3993C39.295 87.5883 39.2727 87.9013 39.2007 88.3164C39.0571 89.1436 38.7142 90.3869 37.8951 91.8738C36.336 94.7038 32.9453 98.6041 25.4844 102.162C18.0236 98.6041 14.6329 94.7038 13.074 91.8739C12.2549 90.387 11.912 89.1436 11.7685 88.3165C11.6964 87.9014 11.6741 87.5883 11.668 87.3994C11.665 87.3049 11.666 87.2416 11.6669 87.2123C11.6671 87.2056 11.6673 87.2007 11.6675 87.1976Z" fill="#514347"/>
<path fill-rule="evenodd" clip-rule="evenodd" d="M172.724 26.6928C173.383 27.3416 174.367 27.5323 175.221 27.1769L184.008 23.5196C184.856 23.1663 185.413 22.3416 185.424 21.4225L185.505 14.2775C186.64 13.2672 187.709 12.1686 188.701 10.9866L195.873 10.9085C196.795 10.8984 197.622 10.3383 197.974 9.4855L201.616 0.6521C201.966 -0.195671 201.778 -1.17009 201.139 -1.82762L196.118 -6.99273C196.281 -8.90182 196.269 -10.8046 196.093 -12.6788C195.974 -13.9433 194.852 -14.8719 193.588 -14.7529C192.323 -14.6339 191.395 -13.5122 191.514 -12.2477C191.694 -10.3342 191.673 -8.38564 191.438 -6.43429C191.355 -5.74462 191.588 -5.05436 192.072 -4.55626L196.788 0.295294L194.302 6.32571L187.57 6.399C186.871 6.40661 186.213 6.732 185.782 7.28319C184.575 8.82905 183.22 10.2199 181.747 11.443C181.228 11.8741 180.925 12.5113 180.917 13.186L180.841 19.8553L174.863 22.3439L170.423 17.9741C169.913 17.4722 169.198 17.2362 168.49 17.3358C166.37 17.6336 164.206 17.6683 162.045 17.422C161.355 17.3435 160.667 17.5804 160.172 18.0669L155.825 22.3395L149.848 19.8486L149.783 13.7221C149.776 13.0329 149.46 12.3833 148.922 11.9522C147.22 10.5879 145.714 9.02285 144.424 7.30284C143.995 6.73107 143.325 6.39117 142.611 6.38306L136.397 6.31262L133.916 0.281723L138.555 -4.48532C139.026 -4.96847 139.26 -5.63366 139.197 -6.30492C139.017 -8.21834 139.038 -10.167 139.273 -12.1187C139.356 -12.8089 139.122 -13.4998 138.637 -13.9979L138.57 -14.0675C137.684 -14.9776 136.228 -14.9971 135.317 -14.111C134.768 -13.5765 134.544 -12.8346 134.646 -12.1302C134.467 -10.3941 134.432 -8.66151 134.535 -6.94909L129.566 -1.84398C128.926 -1.18688 128.738 -0.21265 129.087 0.635315L132.723 9.47025C133.074 10.3234 133.901 10.8842 134.824 10.8947L141.452 10.9698C142.576 12.3574 143.827 13.6519 145.195 14.8337L145.265 21.4128C145.275 22.3322 145.831 23.1575 146.68 23.5112L155.464 27.1722C156.318 27.5279 157.302 27.3378 157.961 26.6895L162.633 22.0976C164.427 22.2349 166.218 22.2095 167.986 22.0293L172.724 26.6928Z" fill="#514347"/>
<path fill-rule="evenodd" clip-rule="evenodd" d="M158.57 7.15432C167.612 10.9229 177.969 6.602 181.709 -2.46937C183.128 -5.90985 183.389 -9.54656 182.678 -12.9356C182.417 -14.1787 181.198 -14.9749 179.955 -14.714C178.712 -14.4531 177.916 -13.2339 178.177 -11.9909C178.705 -9.47402 178.511 -6.77983 177.457 -4.22303L177.457 -4.22283C174.681 2.50993 167.014 5.69063 160.34 2.90873L159.465 5.00678L160.34 2.90873C154.426 0.443658 151.251 -5.88902 152.534 -11.9898C152.796 -13.2327 152 -14.4523 150.757 -14.7138C149.514 -14.9753 148.294 -14.1797 148.033 -12.9367C146.306 -4.73022 150.564 3.81714 158.57 7.15432Z" fill="#514347"/>
<path d="M206.186 18.3076C209.146 18.3076 209.151 13.708 206.186 13.708C203.227 13.708 203.222 18.3076 206.186 18.3076Z" fill="#514347"/>
<path fill-rule="evenodd" clip-rule="evenodd" d="M77.4301 178.843C78.2072 179.234 79.138 179.152 79.8355 178.633L88.72 172.02H102.5C103.771 172.02 104.8 170.99 104.8 169.72C104.8 168.45 103.771 167.42 102.5 167.42H87.958C87.4633 167.42 86.9817 167.579 86.5848 167.875L80.7621 172.209V169.72C80.7621 168.45 79.7324 167.42 78.4623 167.42H71.6012C69.674 167.42 68.1113 165.857 68.1113 163.93V152.224C68.1113 150.297 69.674 148.734 71.6012 148.734H108.409C110.336 148.734 111.898 150.297 111.898 152.224C111.898 153.494 112.928 154.524 114.198 154.524C115.468 154.524 116.498 153.494 116.498 152.224C116.498 147.757 112.876 144.135 108.409 144.135H71.6012C67.1337 144.135 63.5117 147.757 63.5117 152.224V163.93C63.5117 168.398 67.1337 172.02 71.6012 172.02H76.1625V176.788C76.1625 177.658 76.653 178.453 77.4301 178.843Z" fill="#514347"/>
<path fill-rule="evenodd" clip-rule="evenodd" d="M100.199 168.954C100.199 178.69 108.092 186.583 117.828 186.583C127.564 186.583 135.457 178.69 135.457 168.954C135.457 159.218 127.564 151.325 117.828 151.325C108.092 151.325 100.199 159.218 100.199 168.954ZM117.828 181.983C110.632 181.983 104.799 176.15 104.799 168.954C104.799 161.758 110.632 155.925 117.828 155.925C125.024 155.925 130.857 161.758 130.857 168.954C130.857 176.15 125.024 181.983 117.828 181.983Z" fill="#514347"/>
<path fill-rule="evenodd" clip-rule="evenodd" d="M124.499 174.576C125.318 173.605 125.195 172.154 124.224 171.335L120.131 167.884V160.75C120.131 159.48 119.101 158.45 117.831 158.45C116.561 158.45 115.531 159.48 115.531 160.75V168.953C115.531 169.631 115.83 170.275 116.349 170.712L121.259 174.852C122.23 175.671 123.681 175.547 124.499 174.576Z" fill="#514347"/>
<path fill-rule="evenodd" clip-rule="evenodd" d="M192.28 165.358C193.55 165.358 194.58 164.329 194.58 163.059V155.475H207.79V163.059C207.79 164.329 208.82 165.358 210.09 165.358C211.36 165.358 212.389 164.329 212.389 163.059V153.175C212.389 151.905 211.36 150.875 210.09 150.875H192.28C191.01 150.875 189.98 151.905 189.98 153.175V163.059C189.98 164.329 191.01 165.358 192.28 165.358Z" fill="#514347"/>
<path fill-rule="evenodd" clip-rule="evenodd" d="M287.27 43.301C287.978 42.7865 288.332 41.9145 288.184 41.0517L287.327 36.051L290.96 32.5094C291.587 31.8983 291.813 30.9844 291.542 30.1518C291.272 29.3193 290.552 28.7125 289.686 28.5866L284.664 27.8571L282.419 23.3072C282.031 22.5221 281.232 22.0251 280.356 22.0252C279.481 22.0252 278.682 22.5222 278.294 23.3073L276.049 27.8571L271.028 28.5866C270.161 28.7125 269.442 29.3193 269.171 30.1518C268.901 30.9844 269.126 31.8983 269.753 32.5094L273.386 36.051L272.529 41.0516C272.381 41.9144 272.735 42.7864 273.443 43.301C274.152 43.8155 275.091 43.8834 275.865 43.4761L280.357 41.1151L284.848 43.4761C285.622 43.8834 286.561 43.8155 287.27 43.301ZM277.85 37.2364L278.124 35.6369C278.252 34.8909 278.005 34.1296 277.463 33.6013L276.301 32.4685L277.907 32.2351C278.656 32.1263 279.304 31.6557 279.639 30.9769L280.357 29.5218L281.075 30.977C281.41 31.6558 282.057 32.1263 282.806 32.2351L284.413 32.4685L283.251 33.6013C282.709 34.1296 282.461 34.8908 282.589 35.6368L282.863 37.2366L281.427 36.4813C280.757 36.1291 279.956 36.1291 279.286 36.4813L277.85 37.2364Z" fill="#514347"/>
</g>
<defs>
<clipPath id="clip0_3387_24146">
<rect width="304" height="180" fill="white"/>
</clipPath>
</defs>
</svg>
