<svg xmlns="http://www.w3.org/2000/svg" width="24" height="24" viewBox="0 0 24 24" fill="none">
  <path fill-rule="evenodd" clip-rule="evenodd" d="M6 4H18C19.1046 4 20 4.89543 20 6V18C20 19.1046 19.1046 20 18 20H6C4.89543 20 4 19.1046 4 18V6C4 4.89543 4.89543 4 6 4ZM2 6C2 3.79086 3.79086 2 6 2H18C20.2091 2 22 3.79086 22 6V18C22 20.2091 20.2091 22 18 22H6C3.79086 22 2 20.2091 2 18V6ZM6 7C6 6.44772 6.44772 6 7 6H8C8.55229 6 9 6.44772 9 7V8C9 8.55229 8.55228 9 8 9H7C6.44772 9 6 8.55228 6 8V7ZM6 11.5C6 10.9477 6.44772 10.5 7 10.5H8C8.55229 10.5 9 10.9477 9 11.5V12.5C9 13.0523 8.55228 13.5 8 13.5H7C6.44772 13.5 6 13.0523 6 12.5V11.5ZM10.9033 11.0342C10.3699 11.0342 9.9375 11.4666 9.9375 12C9.9375 12.5334 10.3699 12.9658 10.9033 12.9658H17.2217C17.7551 12.9658 18.1875 12.5334 18.1875 12C18.1875 11.4666 17.7551 11.0342 17.2217 11.0342H10.9033ZM10 7.59668C10 7.06327 10.4324 6.63086 10.9658 6.63086H17.2842C17.8176 6.63086 18.25 7.06327 18.25 7.59668C18.25 8.13009 17.8176 8.5625 17.2842 8.5625H10.9658C10.4324 8.5625 10 8.13009 10 7.59668ZM10.9658 15.5684C10.4324 15.5684 10 16.0008 10 16.5342C10 17.0676 10.4324 17.5 10.9658 17.5H17.2842C17.8176 17.5 18.25 17.0676 18.25 16.5342C18.25 16.0008 17.8176 15.5684 17.2842 15.5684H10.9658ZM6 16C6 15.4477 6.44772 15 7 15H8C8.55229 15 9 15.4477 9 16V17C9 17.5523 8.55228 18 8 18H7C6.44772 18 6 17.5523 6 17V16Z" fill="#49454E"/>
</svg>