<svg width="24" height="24" viewBox="0 0 24 24" fill="none" xmlns="http://www.w3.org/2000/svg">
<path fill-rule="evenodd" clip-rule="evenodd" d="M18 4H19C20.1 4 21 4.9 21 6V20C21 21.1 20.1 22 19 22H5C3.89 22 3 21.1 3 20V6C3 4.9 3.89 4 5 4H6V2H8V4H16V2H18V4ZM5 20H19V9H5V20ZM7 12C7 11.4477 7.44772 11 8 11H16C16.5523 11 17 11.4477 17 12C17 12.5523 16.5523 13 16 13H8C7.44772 13 7 12.5523 7 12ZM8 15C7.44772 15 7 15.4477 7 16C7 16.5523 7.44772 17 8 17H16C16.5523 17 17 16.5523 17 16C17 15.4477 16.5523 15 16 15H8Z" fill="#49454E"/>
</svg>
