<svg width="18" height="18" viewBox="0 0 18 18" fill="none" xmlns="http://www.w3.org/2000/svg">
<path d="M12.2508 9.68852V8.58696H13.7508V7.87505H11.3924V12.1407H12.2508V10.3975H13.5867V9.68852H12.2508Z" fill="#65558F"/>
<path fill-rule="evenodd" clip-rule="evenodd" d="M9.03809 12.1407H7.9248V7.87505H9.0498C9.2959 7.87505 9.51953 7.91509 9.7207 7.99516C9.92188 8.07524 10.0947 8.19243 10.2393 8.34673C10.3838 8.49907 10.4951 8.68755 10.5732 8.91216C10.6514 9.13677 10.6904 9.39262 10.6904 9.67973V10.3389C10.6904 10.628 10.6514 10.8838 10.5732 11.1065C10.4951 11.3291 10.3838 11.5176 10.2393 11.6719C10.0967 11.8243 9.92383 11.9405 9.7207 12.0206C9.51758 12.1006 9.29004 12.1407 9.03809 12.1407ZM9.03809 11.4317H8.7832V8.58696H9.0498C9.2002 8.58696 9.32617 8.60747 9.42773 8.64848C9.5293 8.6895 9.61035 8.75298 9.6709 8.83891C9.73145 8.9229 9.77441 9.03423 9.7998 9.1729C9.8252 9.30962 9.83789 9.47661 9.83789 9.67387V10.3389C9.83789 10.5987 9.81348 10.8086 9.76465 10.9688C9.71777 11.129 9.63672 11.2461 9.52148 11.3204C9.40625 11.3946 9.24512 11.4317 9.03809 11.4317Z" fill="#65558F"/>
<path fill-rule="evenodd" clip-rule="evenodd" d="M5.29514 10.6377H5.89279C6.1799 10.6377 6.42697 10.5821 6.634 10.4707C6.84103 10.3594 6.99924 10.2032 7.10861 10.002C7.21994 9.79887 7.2756 9.55962 7.2756 9.28423C7.2756 9.01079 7.21994 8.7686 7.10861 8.55766C6.99924 8.34477 6.84103 8.17778 6.634 8.05669C6.42697 7.93559 6.1799 7.87505 5.89279 7.87505H4.43967V12.1407H5.29514V10.6377ZM5.29514 9.92583V8.58696H5.89279C6.01584 8.58696 6.11447 8.62016 6.18869 8.68657C6.26486 8.75298 6.32053 8.83989 6.35568 8.94731C6.39279 9.05278 6.41135 9.16704 6.41135 9.29009C6.41135 9.41118 6.39377 9.52055 6.35861 9.61821C6.32346 9.71391 6.26682 9.78911 6.18869 9.8438C6.11252 9.89848 6.01389 9.92583 5.89279 9.92583H5.29514Z" fill="#65558F"/>
<path fill-rule="evenodd" clip-rule="evenodd" d="M2.0625 14.0719V5.6625L6.225 1.5H13.5094C14.8527 1.5 15.9375 2.58477 15.9375 3.92813V14.0719C15.9375 15.4153 14.8527 16.5 13.5094 16.5H4.49063C3.14727 16.5 2.0625 15.4153 2.0625 14.0719ZM14.55 3.92813C14.55 3.3542 14.0833 2.8875 13.5094 2.8875H6.91875V3.92813C6.91875 5.27148 5.83398 6.35625 4.49063 6.35625H3.45V14.0719C3.45 14.6458 3.9167 15.1125 4.49063 15.1125H13.5094C14.0833 15.1125 14.55 14.6458 14.55 14.0719V3.92813Z" fill="#65558F"/>
</svg>
