<svg xmlns="http://www.w3.org/2000/svg" width="33" height="30" viewBox="0 0 33 30" fill="none">
  <path d="M27.8216 20.6136L24.4723 17.2643C23.2761 16.0681 21.2426 16.5466 20.7642 18.1016C20.4053 19.1782 19.2092 19.7763 18.1326 19.537C15.7403 18.9389 12.5106 15.8289 11.9125 13.3169C11.5537 12.2403 12.2714 11.0442 13.3479 10.6854C14.903 10.2069 15.3814 8.17342 14.1853 6.97726L10.836 3.62799C9.87905 2.79067 8.44365 2.79067 7.60633 3.62799L5.33362 5.90071C3.0609 8.29304 5.57285 14.6327 11.1948 20.2547C16.8168 25.8767 23.1565 28.5083 25.5488 26.1159L27.8216 23.8432C28.6589 22.8863 28.6589 21.4509 27.8216 20.6136Z" fill="#65558F"/>
</svg>