<svg width="24" height="24" viewBox="0 0 24 24" fill="none" xmlns="http://www.w3.org/2000/svg">
<path fill-rule="evenodd" clip-rule="evenodd" d="M22.6877 5.27405C23.0887 5.65388 23.1058 6.28681 22.726 6.68774L21.6654 7.80717C21.521 7.95966 21.5259 8.19994 21.6765 8.34636L21.6971 8.36634C22.6486 9.29147 22.6486 10.8196 21.6971 11.7448C21.5533 11.8846 21.5533 12.1154 21.6971 12.2552C22.6486 13.1804 22.6486 14.7085 21.6971 15.6337L21.6765 15.6536C21.5259 15.8001 21.521 16.0403 21.6655 16.1928L22.726 17.3123C23.1058 17.7132 23.0887 18.3461 22.6877 18.726C22.2868 19.1058 21.6539 19.0887 21.274 18.6877L20.2135 17.5683C19.3164 16.6213 19.347 15.129 20.2824 14.2197L20.3029 14.1997C20.4467 14.0599 20.4467 13.829 20.3029 13.6892C19.3514 12.7641 19.3514 11.2359 20.3029 10.3108C20.4467 10.171 20.4467 9.94011 20.3029 9.80033L20.2824 9.78035C19.347 8.87099 19.3164 7.37871 20.2135 6.43168L21.274 5.31226C21.6539 4.91132 22.2868 4.89422 22.6877 5.27405ZM15 2C16.6569 2 18 3.34315 18 5V19C18 20.6569 16.6569 22 15 22H9C7.34314 22 6 20.6569 6 19V5C6 3.34315 7.34314 2 9 2H15ZM16 5C16 4.44772 15.5523 4 15 4H9C8.44771 4 8 4.44772 8 5V19C8 19.5523 8.44771 20 9 20H15C15.5523 20 16 19.5523 16 19V5ZM3.78646 6.43168C4.68364 7.37871 4.65297 8.87099 3.71763 9.78035L3.69708 9.80033C3.5533 9.94011 3.5533 10.171 3.69708 10.3108C4.64864 11.2359 4.64864 12.7641 3.69707 13.6892C3.5533 13.829 3.5533 14.0599 3.69707 14.1997L3.71762 14.2197C4.65296 15.129 4.68363 16.6213 3.78646 17.5683L2.72595 18.6877C2.34612 19.0887 1.71319 19.1058 1.31226 18.726C0.911326 18.3461 0.894217 17.7132 1.27404 17.3123L2.33455 16.1928C2.47901 16.0403 2.47407 15.8001 2.32346 15.6536L2.30291 15.6337C1.35135 14.7085 1.35135 13.1804 2.30292 12.2552C2.44669 12.1154 2.44669 11.8846 2.30292 11.7448C1.35135 10.8196 1.35135 9.29147 2.30292 8.36634L2.32347 8.34636C2.47408 8.19994 2.47901 7.95966 2.33455 7.80717L1.27405 6.68774C0.894219 6.28681 0.911326 5.65388 1.31225 5.27405C1.71319 4.89422 2.34612 4.91132 2.72595 5.31226L3.78646 6.43168Z" fill="#49454E"/>
</svg>
