<svg width="180" height="180" viewBox="0 0 180 180" fill="none" xmlns="http://www.w3.org/2000/svg">
<g clip-path="url(#clip0_8685_35510)">
<rect width="180" height="180" fill="#5B27D9"/>
<circle cx="154" cy="152" r="97" fill="#511AD6"/>
<path opacity="0.8" d="M51.916 97.7646H60.1875C60.028 101.365 59.2988 104.43 58 106.959C56.7012 109.465 54.8327 111.38 52.3945 112.701C49.9792 114.023 47.0283 114.684 43.542 114.684C40.8988 114.684 38.529 114.205 36.4326 113.248C34.359 112.291 32.5931 110.912 31.1348 109.112C29.6764 107.289 28.5599 105.068 27.7852 102.447C27.0332 99.8268 26.6572 96.8532 26.6572 93.5264V84.708C26.6572 81.3812 27.0446 78.4076 27.8193 75.7871C28.6169 73.1667 29.7562 70.945 31.2373 69.1221C32.7184 67.2992 34.5186 65.9206 36.6377 64.9863C38.7796 64.0293 41.195 63.5508 43.8838 63.5508C47.3245 63.5508 50.2184 64.2116 52.5654 65.5332C54.9124 66.8548 56.724 68.7917 58 71.3438C59.276 73.8958 60.0166 77.0062 60.2217 80.6748H51.9502C51.8363 78.1911 51.4945 76.2087 50.9248 74.7275C50.3779 73.2236 49.5348 72.1413 48.3955 71.4805C47.279 70.8197 45.7751 70.4893 43.8838 70.4893C42.3115 70.4893 40.9557 70.7855 39.8164 71.3779C38.6999 71.9704 37.777 72.859 37.0479 74.0439C36.3415 75.2061 35.806 76.6758 35.4414 78.4531C35.0996 80.2077 34.9287 82.2699 34.9287 84.6396V93.5264C34.9287 95.805 35.0768 97.8216 35.373 99.5762C35.6693 101.331 36.1478 102.823 36.8086 104.054C37.4694 105.261 38.3467 106.184 39.4404 106.822C40.5342 107.438 41.9014 107.745 43.542 107.745C45.5016 107.745 47.0625 107.438 48.2246 106.822C49.4095 106.207 50.2868 105.17 50.8564 103.712C51.4261 102.254 51.7793 100.271 51.916 97.7646ZM68.7901 64.2344H83.8292C87.1104 64.2344 89.8904 64.804 92.169 65.9434C94.4477 67.0827 96.1795 68.7689 97.3644 71.002C98.572 73.2122 99.1759 75.958 99.1759 79.2393C99.1759 81.723 98.7999 83.9105 98.0479 85.8018C97.3188 87.693 96.2592 89.2881 94.8692 90.5869C93.4793 91.863 91.8045 92.8542 89.8448 93.5605L87.4181 94.8936H74.7032L74.669 87.9209H83.6241C85.242 87.9209 86.5864 87.5677 87.6573 86.8613C88.7283 86.1549 89.5258 85.1751 90.0499 83.9219C90.5968 82.6686 90.8702 81.2445 90.8702 79.6494C90.8702 77.9404 90.631 76.4593 90.1524 75.2061C89.6739 73.93 88.922 72.9502 87.8966 72.2666C86.8712 71.5602 85.5154 71.207 83.8292 71.207H77.0958V114H68.7901V64.2344ZM91.964 114L82.4962 91.6465L91.1437 91.6123L100.851 113.556V114H91.964ZM110.855 64.2344H118.408L129.859 101.251L141.275 64.2344H148.281L132.969 114H126.714L110.855 64.2344ZM108.018 64.2344H114.99L116.118 95.9189V114H108.018V64.2344ZM144.658 64.2344H151.665V114H143.565V95.9189L144.658 64.2344Z" fill="white"/>
</g>
<defs>
<clipPath id="clip0_8685_35510">
<rect width="180" height="180" fill="white"/>
</clipPath>
</defs>
</svg>
