<svg width="41" height="40" viewBox="0 0 41 40" fill="none" xmlns="http://www.w3.org/2000/svg">
<path d="M7.16406 33.3332V28.6665C7.16406 27.7221 7.40712 26.854 7.89323 26.0623C8.37934 25.2707 9.02517 24.6665 9.83073 24.2498C11.553 23.3887 13.303 22.7429 15.0807 22.3123C16.8585 21.8818 18.6641 21.6665 20.4974 21.6665C21.5252 21.6665 22.5391 21.729 23.5391 21.854C24.5391 21.979 25.5391 22.1804 26.5391 22.4582L23.7474 25.2915C23.1918 25.2082 22.6502 25.1387 22.1224 25.0832C21.5946 25.0276 21.053 24.9998 20.4974 24.9998C18.9418 24.9998 17.4002 25.1873 15.8724 25.5623C14.3446 25.9373 12.8307 26.4998 11.3307 27.2498C11.0807 27.3887 10.8793 27.5832 10.7266 27.8332C10.5738 28.0832 10.4974 28.3609 10.4974 28.6665V29.9998H20.4974V33.3332H7.16406ZM23.8307 34.9998V29.8748L33.0391 20.7082C33.2891 20.4582 33.5668 20.2776 33.8724 20.1665C34.1779 20.0554 34.4835 19.9998 34.7891 19.9998C35.1224 19.9998 35.4418 20.0623 35.7474 20.1873C36.0529 20.3123 36.3307 20.4998 36.5807 20.7498L38.1224 22.2915C38.3446 22.5415 38.5182 22.8193 38.6432 23.1248C38.7682 23.4304 38.8307 23.7359 38.8307 24.0415C38.8307 24.3471 38.7752 24.6596 38.6641 24.979C38.5529 25.2985 38.3724 25.5832 38.1224 25.8332L28.9557 34.9998H23.8307ZM26.3307 32.4998H27.9141L32.9557 27.4165L32.2057 26.6248L31.4141 25.8748L26.3307 30.9165V32.4998ZM32.2057 26.6248L31.4141 25.8748L32.9557 27.4165L32.2057 26.6248ZM20.4974 19.9998C18.6641 19.9998 17.0946 19.3471 15.7891 18.0415C14.4835 16.7359 13.8307 15.1665 13.8307 13.3332C13.8307 11.4998 14.4835 9.93039 15.7891 8.62484C17.0946 7.31928 18.6641 6.6665 20.4974 6.6665C22.3307 6.6665 23.9002 7.31928 25.2057 8.62484C26.5113 9.93039 27.1641 11.4998 27.1641 13.3332C27.1641 15.1665 26.5113 16.7359 25.2057 18.0415C23.9002 19.3471 22.3307 19.9998 20.4974 19.9998ZM20.4974 16.6665C21.4141 16.6665 22.1988 16.3401 22.8516 15.6873C23.5043 15.0346 23.8307 14.2498 23.8307 13.3332C23.8307 12.4165 23.5043 11.6318 22.8516 10.979C22.1988 10.3262 21.4141 9.99984 20.4974 9.99984C19.5807 9.99984 18.796 10.3262 18.1432 10.979C17.4905 11.6318 17.1641 12.4165 17.1641 13.3332C17.1641 14.2498 17.4905 15.0346 18.1432 15.6873C18.796 16.3401 19.5807 16.6665 20.4974 16.6665Z" fill="#210F47"/>
</svg>
