<svg xmlns="http://www.w3.org/2000/svg" width="24" height="24" viewBox="0 0 24 24" fill="none">
  <path fill-rule="evenodd" clip-rule="evenodd" d="M19.3913 4.8H4.6087C4.12845 4.8 3.73913 5.20294 3.73913 5.7V7.5H20.2609V5.7C20.2609 5.20294 19.8716 4.8 19.3913 4.8ZM20.2609 9.3H3.73913V18.3C3.73913 18.7971 4.12845 19.2 4.6087 19.2H19.3913C19.8716 19.2 20.2609 18.7971 20.2609 18.3V9.3ZM4.6087 3C3.16795 3 2 4.20883 2 5.7V18.3C2 19.7912 3.16795 21 4.6087 21H19.3913C20.832 21 22 19.7912 22 18.3V5.7C22 4.20883 20.832 3 19.3913 3H4.6087ZM7.21739 15.6H6.34783V16.5H7.21739V15.6ZM6.34783 13.8C5.38733 13.8 4.6087 14.6059 4.6087 15.6V16.5C4.6087 17.4941 5.38733 18.3 6.34783 18.3H7.21739C8.17789 18.3 8.95652 17.4941 8.95652 16.5V15.6C8.95652 14.6059 8.17789 13.8 7.21739 13.8H6.34783ZM11.5652 13.8H12.4348V16.5H11.5652V13.8ZM9.82609 13.8C9.82609 12.8059 10.6047 12 11.5652 12H12.4348C13.3953 12 14.1739 12.8059 14.1739 13.8V16.5C14.1739 17.4941 13.3953 18.3 12.4348 18.3H11.5652C10.6047 18.3 9.82609 17.4941 9.82609 16.5V13.8ZM17.6522 12H16.7826V16.5H17.6522V12ZM16.7826 10.2C15.8221 10.2 15.0435 11.0059 15.0435 12V16.5C15.0435 17.4941 15.8221 18.3 16.7826 18.3H17.6522C18.6127 18.3 19.3913 17.4941 19.3913 16.5V12C19.3913 11.0059 18.6127 10.2 17.6522 10.2H16.7826ZM5.47826 6.15C5.47826 5.78425 5.76474 5.48774 6.11812 5.48774H6.75756C7.11094 5.48774 7.39742 5.78425 7.39742 6.15C7.39742 6.51575 7.11094 6.81226 6.75756 6.81226H6.11812C5.76474 6.81226 5.47826 6.51575 5.47826 6.15ZM9.59638 5.48774C9.243 5.48774 8.95652 5.78425 8.95652 6.15C8.95652 6.51575 9.243 6.81226 9.59638 6.81226H10.3004C10.6537 6.81226 10.9402 6.51575 10.9402 6.15C10.9402 5.78425 10.6537 5.48774 10.3004 5.48774H9.59638Z" fill="#49454E"/>
</svg>