<svg width="18" height="18" viewBox="0 0 18 18" fill="none" xmlns="http://www.w3.org/2000/svg">
<path d="M12.9117 10.8692C12.9254 10.9317 12.9322 11.001 12.9322 11.0772C12.9322 11.169 12.9175 11.251 12.8882 11.3233C12.8589 11.3956 12.8101 11.4532 12.7418 11.4961C12.6754 11.5391 12.5855 11.5606 12.4722 11.5606C12.3726 11.5606 12.2838 11.5479 12.2056 11.5225C12.1295 11.4952 12.065 11.4551 12.0123 11.4024C11.9595 11.3477 11.9205 11.2754 11.8951 11.1856C11.8697 11.0938 11.857 10.9834 11.857 10.8545H10.9986C10.9986 11.0967 11.0367 11.3067 11.1129 11.4844C11.189 11.6602 11.2935 11.8057 11.4263 11.9209C11.5611 12.0342 11.7164 12.1192 11.8922 12.1758C12.0679 12.2305 12.2545 12.2579 12.4517 12.2579C12.6548 12.2579 12.8384 12.2295 13.0025 12.1729C13.1685 12.1163 13.3101 12.0362 13.4273 11.9327C13.5445 11.8272 13.6334 11.7022 13.6939 11.5577C13.7564 11.4112 13.7877 11.2491 13.7877 11.0713C13.7877 10.8916 13.7623 10.7315 13.7115 10.5909C13.6607 10.4502 13.5855 10.3243 13.4859 10.2129C13.3863 10.0997 13.2623 9.99809 13.1138 9.90825C12.9654 9.81645 12.7945 9.73247 12.6011 9.6563C12.5015 9.61723 12.4097 9.5772 12.3257 9.53618C12.2437 9.49516 12.1724 9.45317 12.1119 9.4102C12.0513 9.36528 12.0035 9.31548 11.9683 9.26079C11.9351 9.20415 11.9185 9.14067 11.9185 9.07036C11.9185 8.97661 11.9351 8.89262 11.9683 8.81841C12.0035 8.74223 12.0562 8.68266 12.1265 8.63969C12.1988 8.59477 12.2896 8.57231 12.399 8.57231C12.5162 8.57231 12.6119 8.59868 12.6861 8.65141C12.7603 8.70415 12.814 8.77739 12.8472 8.87114C12.8824 8.96294 12.9 9.06938 12.9 9.19048H13.7554C13.7554 8.93462 13.6998 8.70805 13.5884 8.51079C13.4791 8.31352 13.3238 8.15825 13.1226 8.04497C12.9234 7.93169 12.6871 7.87505 12.4136 7.87505C12.2125 7.87505 12.0298 7.90337 11.8658 7.96001C11.7037 8.01665 11.5621 8.0977 11.441 8.20317C11.3199 8.30669 11.2261 8.43169 11.1597 8.57817C11.0953 8.72466 11.063 8.88774 11.063 9.06743C11.063 9.25102 11.0972 9.41118 11.1656 9.5479C11.2359 9.68266 11.3306 9.79985 11.4498 9.89946C11.5689 9.99907 11.7027 10.087 11.8511 10.1631C11.9996 10.2374 12.1529 10.3077 12.3111 10.3741C12.4439 10.4307 12.5513 10.4854 12.6334 10.5381C12.7173 10.5909 12.7808 10.6436 12.8238 10.6963C12.8687 10.7491 12.898 10.8067 12.9117 10.8692Z" fill="#65558F"/>
<path d="M10.5486 11.4903V12.1993H8.18143V7.93364H9.03983V11.4903H10.5486Z" fill="#65558F"/>
<path d="M6.11426 9.35747L5.50488 7.93364H4.52344L5.56641 10.0284L4.5 12.1993H5.46387L6.07031 10.7432L6.67676 12.1993H7.66113L6.6123 10.0459L7.64062 7.93364H6.69434L6.11426 9.35747Z" fill="#65558F"/>
<path fill-rule="evenodd" clip-rule="evenodd" d="M2.0625 14.0719V5.6625L6.225 1.5H13.5094C14.8527 1.5 15.9375 2.58477 15.9375 3.92813V14.0719C15.9375 15.4153 14.8527 16.5 13.5094 16.5H4.49063C3.14727 16.5 2.0625 15.4153 2.0625 14.0719ZM14.55 3.92813C14.55 3.3542 14.0833 2.8875 13.5094 2.8875H6.91875V3.92813C6.91875 5.27148 5.83398 6.35625 4.49063 6.35625H3.45V14.0719C3.45 14.6458 3.9167 15.1125 4.49063 15.1125H13.5094C14.0833 15.1125 14.55 14.6458 14.55 14.0719V3.92813Z" fill="#65558F"/>
</svg>
