<svg xmlns="http://www.w3.org/2000/svg" width="30" height="30" viewBox="0 0 30 30" fill="none">
	<path fill-rule="evenodd" clip-rule="evenodd" d="M16.7808 2.17207L21.8364 7.23859C22.0541 7.4578 22.0541 7.80154 21.8364 8.01993L16.7808 13.0864C16.6158 13.2516 16.3616 13.3042 16.143 13.2178C15.9221 13.1324 15.7774 12.9259 15.7774 12.6961V10.2567H14.8535C12.4073 10.2567 10.2086 11.568 9.11495 13.6795C9.01312 13.8753 8.80235 14 8.58218 14C8.53945 14 8.49673 13.9955 8.45386 13.985C8.19025 13.9256 7.99969 13.7079 7.99969 13.4468V12.3209C7.99969 8.28573 11.4017 5.00261 15.583 5.00261H15.7774V2.56308C15.7774 2.33342 15.9221 2.12699 16.143 2.04068C16.3631 1.95519 16.6158 2.007 16.7808 2.17207ZM4.99997 21.9999H18.9998C20.6537 21.9999 21.9997 20.6541 21.9997 18.9999V13.0001C21.9997 12.4472 21.5528 12 20.9996 12C20.4466 12 19.9997 12.4472 19.9997 13.0001V18.9999C19.9997 19.552 19.5516 20 18.9998 20H4.99997C4.44791 20 3.99986 19.552 3.99986 18.9999V7.00021C3.99986 6.44815 4.44791 6.0001 4.99997 6.0001H5.99993C6.5529 6.0001 6.99986 5.55314 6.99986 5.00017C6.99986 4.4472 6.5529 4.00024 5.99993 4.00024H4.99997C3.34599 4.00024 2 5.34624 2 7.00021V18.9999C2 20.6541 3.34599 21.9999 4.99997 21.9999Z" fill="#49454E" />
</svg>