<?xml version='1.0' encoding='UTF-8'?>
<svg x="0px" y="0px" viewBox="0 0 16 16" version="1.1" xmlns="http://www.w3.org/2000/svg" xmlns:xlink="http://www.w3.org/1999/xlink" xml:space="preserve" id="Layer_1" style="enable-background:new 0 0 16 16">
  <style type="text/css">
	.LightGrey{fill:#BDC1CC;}
</style>
  <path d="M15,5h-3V2c0-0.5-0.5-1-1-1H1C0.5,1,0,1.5,0,2v9c0,0.5,0.5,1,1,1c0,1.7,1.3,3,3,3s3-1.3,3-3h1  c0,1.7,1.3,3,3,3s3-1.3,3-3h1c0.5,0,1-0.5,1-1V6C16,5.5,15.5,5,15,5z M4,13c-0.6,0-1-0.4-1-1s0.4-1,1-1s1,0.4,1,1S4.6,13,4,13z   M11,13c-0.6,0-1-0.4-1-1s0.4-1,1-1s1,0.4,1,1S11.6,13,11,13z M14,10h-0.8c-0.5-0.6-1.3-1-2.2-1s-1.7,0.4-2.2,1H8H6.2  C5.7,9.4,4.9,9,4,9C3.2,9,2.5,9.3,2,9.8V8V3h8v4h4V10z" class="LightGrey" />
</svg>