<svg xmlns="http://www.w3.org/2000/svg" width="40" height="40" viewBox="0 0 40 40" fill="none">
  <path fill-rule="evenodd" clip-rule="evenodd" d="M15.4015 32.8866C22.4791 32.8382 28.2031 27.0895 28.2031 20.0003C28.2031 13.2768 23.0536 7.76158 16.4844 7.16877V4.6616C16.4844 4.23768 15.9899 4.0061 15.6643 4.27749L9.9141 9.0693C9.67421 9.26922 9.67423 9.63767 9.91414 9.83756L15.6643 14.6284C15.99 14.8998 16.4844 14.6682 16.4844 14.2443V11.9156C20.4492 12.4904 23.5156 15.8788 23.5156 20.0003C23.5156 24.5231 19.8352 28.2035 15.3125 28.2035H1C0.447715 28.2035 0 28.6512 0 29.2035V31.891C0 32.4432 0.447715 32.891 1 32.891H15.4068C15.4045 32.8895 15.4038 32.888 15.4015 32.8866ZM32.8906 28.2023L28.676 28.2024C28.3356 28.2024 28.0205 28.377 27.8264 28.6567C26.651 30.3502 25.1424 31.7909 23.3939 32.891H32.8906V35.3455C32.8906 35.7681 33.3824 36.0002 33.7086 35.7314L39.5318 30.933C39.7745 30.7331 39.7745 30.3613 39.5318 30.1613L33.7086 25.362C33.3825 25.0932 32.8906 25.3252 32.8906 25.7478V28.2023ZM8.68823 24.5976C9.11911 25.3838 8.6097 26.5451 7.71314 26.5451H5.05924C4.68429 26.5451 4.338 26.3366 4.18163 25.9958C3.4379 24.375 3 22.586 3 20.6857C3 17.1284 4.44844 13.9153 6.77981 11.5841C7.12789 11.2361 7.68227 11.232 8.06044 11.5471L10.1005 13.247C10.6009 13.6639 10.5726 14.4407 10.1106 14.8997C8.61923 16.3814 7.6875 18.4221 7.6875 20.6857C7.6875 22.103 8.05109 23.435 8.68823 24.5976Z" fill="#49454E"/>
</svg>