<svg xmlns="http://www.w3.org/2000/svg" width="33" height="30" viewBox="0 0 33 30" fill="none">
  <path fill-rule="evenodd" clip-rule="evenodd" d="M14.8858 17.0486L1.75487 8.29435C0.969151 7.77081 0.5 6.89459 0.5 5.95047C0.5 4.3229 1.8229 3.00006 3.44891 3H29.5956C31.2216 3 32.5445 4.32284 32.5445 5.94891C32.5445 6.89459 32.0754 7.77081 31.2896 8.29435L18.1587 17.0486C17.6616 17.38 17.0919 17.5457 16.5222 17.5457C15.9525 17.5457 15.3828 17.38 14.8858 17.0486ZM16.5222 19.4233C17.477 19.4233 18.403 19.1423 19.2003 18.6109L32.3306 9.85689C32.4037 9.80826 32.4748 9.7575 32.5444 9.7053V24.0501C32.5444 25.6653 31.2392 27 29.5945 27H3.44991C1.83466 27 0.5 25.6948 0.5 24.0501V9.70537C0.569534 9.75744 0.640508 9.80807 0.713359 9.85664L13.8443 18.6109C14.6415 19.1423 15.5675 19.4233 16.5222 19.4233Z" fill="#65558F"/>
</svg>