<svg xmlns="http://www.w3.org/2000/svg" width="40" height="40" viewBox="0 0 40 40" fill="none">
  <path d="M20.5 2C10.9 2 3 9.9 3 19.5C3 29.1 10.9 37 20.5 37C30.1 37 38 29.1 38 19.5C38 9.9 30.1 2 20.5 2ZM35.9 18.5H29.1C28.6 14.5 25.5 11.3 21.5 10.9V4.1C29.2 4.5 35.5 10.8 35.9 18.5ZM20.5 12.8C24.2 12.8 27.2 15.8 27.2 19.5C27.2 23.2 24.2 26.2 20.5 26.2C16.8 26.2 13.8 23.2 13.8 19.5C13.8 15.8 16.8 12.8 20.5 12.8ZM20.5 35C12 35 5 28 5 19.5C5 11.3 11.4 4.6 19.5 4.1V10.9C15.2 11.4 11.8 15.1 11.8 19.5C11.8 24.3 15.7 28.2 20.5 28.2C25 28.2 28.6 24.8 29.1 20.5H35.9C35.4 28.6 28.7 35 20.5 35Z" fill="#49454E"/>
</svg>