<svg xmlns="http://www.w3.org/2000/svg" width="33" height="30" viewBox="0 0 33 30" fill="none">
  <path d="M16.1316 3C9.16656 3 3.50003 8.09979 3.50003 14.3684C3.50003 16.5596 4.19309 18.6821 5.50761 20.5175C5.25877 23.2699 4.59182 25.3133 3.6234 26.2813C3.4954 26.4093 3.4634 26.6051 3.54424 26.7667C3.61582 26.9112 3.76319 27 3.92109 27C3.94046 27 3.95982 26.9987 3.97961 26.9958C4.15014 26.9718 8.1114 26.4017 10.9767 24.7478C12.6036 25.4042 14.3367 25.7368 16.1316 25.7368C23.0967 25.7368 28.7632 20.6371 28.7632 14.3684C28.7632 8.09979 23.0967 3 16.1316 3ZM10.2369 16.0526C9.30803 16.0526 8.55267 15.2973 8.55267 14.3684C8.55267 13.4396 9.30803 12.6842 10.2369 12.6842C11.1657 12.6842 11.9211 13.4396 11.9211 14.3684C11.9211 15.2973 11.1657 16.0526 10.2369 16.0526ZM16.1316 16.0526C15.2028 16.0526 14.4474 15.2973 14.4474 14.3684C14.4474 13.4396 15.2028 12.6842 16.1316 12.6842C17.0605 12.6842 17.8158 13.4396 17.8158 14.3684C17.8158 15.2973 17.0605 16.0526 16.1316 16.0526ZM22.0264 16.0526C21.0975 16.0526 20.3421 15.2973 20.3421 14.3684C20.3421 13.4396 21.0975 12.6842 22.0264 12.6842C22.9552 12.6842 23.7106 13.4396 23.7106 14.3684C23.7106 15.2973 22.9552 16.0526 22.0264 16.0526Z" fill="#65558F"/>
</svg>