<svg width="40" height="40" viewBox="0 0 40 40" fill="none" xmlns="http://www.w3.org/2000/svg">
<path fill-rule="evenodd" clip-rule="evenodd" d="M20 6.66663C16.3166 6.66663 13.3333 9.64996 13.3333 13.3333C13.3333 17.0166 16.3166 20 20 20C23.6833 20 26.6666 17.0166 26.6666 13.3333C26.6666 9.64996 23.6833 6.66663 20 6.66663ZM23.3333 13.3333C23.3333 11.5 21.8333 9.99996 20 9.99996C18.1666 9.99996 16.6666 11.5 16.6666 13.3333C16.6666 15.1666 18.1666 16.6666 20 16.6666C21.8333 16.6666 23.3333 15.1666 23.3333 13.3333ZM30 28.3333C29.6666 27.15 24.5 25 20 25C15.5 25 10.3333 27.15 9.99996 28.35V30H30V28.3333ZM6.66663 28.3333C6.66663 23.9 15.55 21.6666 20 21.6666C24.45 21.6666 33.3333 23.9 33.3333 28.3333V33.3333H6.66663V28.3333Z" fill="#49454E"/>
</svg>
