<svg width="24" height="24" viewBox="0 0 24 24" fill="none" xmlns="http://www.w3.org/2000/svg">
<path fill-rule="evenodd" clip-rule="evenodd" d="M13.7368 4.78187C13.6608 4.34875 13.4534 3.94599 13.1383 3.63084C12.7344 3.22692 12.1865 3 11.6153 3C11.0441 3 10.4962 3.22692 10.0923 3.63084C9.77403 3.94914 9.56565 4.3568 9.4916 4.79486C8.57292 5.11459 7.72948 5.64065 7.0311 6.34372C5.82864 7.55425 5.15379 9.19126 5.15383 10.8975V14.6667C4.48844 15.13 3.94503 15.7475 3.56998 16.4663C3.19493 17.1852 2.99937 17.9841 3 18.7949C3 18.9853 3.07564 19.1679 3.21028 19.3025C3.34492 19.4372 3.52754 19.5128 3.71795 19.5128H8.83485C8.96205 20.0052 9.21896 20.4595 9.58471 20.8252C10.1233 21.3638 10.8537 21.6664 11.6154 21.6664C12.377 21.6664 13.1074 21.3638 13.646 20.8252C14.0118 20.4595 14.2687 20.0052 14.3959 19.5128H19.5127C19.7031 19.5128 19.8857 19.4372 20.0203 19.3025C20.155 19.1679 20.2306 18.9853 20.2306 18.7949C20.2353 17.9872 20.0452 17.1904 19.6766 16.4718C19.3079 15.7531 18.7714 15.134 18.1127 14.6667V10.8975C18.1127 9.18382 17.4319 7.54032 16.2202 6.32856C15.5149 5.62326 14.6633 5.09786 13.7368 4.78187ZM10.3735 19.5128H12.8572C12.731 19.7303 12.5499 19.9108 12.332 20.0363C12.1141 20.1619 11.8669 20.2279 11.6154 20.2279C11.3638 20.2279 11.1167 20.1619 10.8987 20.0363C10.6808 19.9108 10.4997 19.7303 10.3735 19.5128ZM13.789 18.0769H18.7229C18.6212 17.5792 18.4151 17.1087 18.118 16.6966C17.821 16.2845 17.4399 15.9401 16.9999 15.6862C16.8903 15.6229 16.7994 15.5319 16.7364 15.4222C16.6733 15.3125 16.6404 15.1881 16.6409 15.0616V10.8975C16.6409 9.56464 16.1114 8.28636 15.1689 7.34388C14.2265 6.4014 12.9482 5.87192 11.6153 5.87192C10.2824 5.87192 9.00416 6.4014 8.06168 7.34388C7.11919 8.28636 6.58971 9.56464 6.58971 10.8975V15.0616C6.59021 15.1881 6.55728 15.3125 6.49424 15.4222C6.4312 15.5319 6.3403 15.6229 6.23074 15.6862C5.79072 15.9401 5.4096 16.2845 5.11257 16.6966C4.81554 17.1087 4.60937 17.5792 4.50768 18.0769H9.4417C9.4483 18.0768 9.45491 18.0767 9.46153 18.0767H13.7692C13.7758 18.0767 13.7824 18.0768 13.789 18.0769Z" fill="#49454E"/>
</svg>
