<svg xmlns="http://www.w3.org/2000/svg" width="24" height="24" viewBox="0 0 24 24" fill="none">
  <path fill-rule="evenodd" clip-rule="evenodd" d="M16.9962 3.75H17.9596C19.4758 3.75 20.7096 4.98385 20.7096 6.5V20.25C20.7096 21.7662 19.4758 23 17.9596 23H6.04297C4.52682 23 3.29297 21.7662 3.29297 20.25V6.5C3.29297 4.98385 4.52682 3.75 6.04297 3.75H7.00637C7.23097 2.199 8.55647 1 10.168 1H13.8346C15.4461 1 16.7716 2.199 16.9962 3.75ZM13.8346 2.83335H10.1679C9.40987 2.83335 8.79293 3.45025 8.79293 4.20835C8.79293 4.96645 9.40983 5.58335 10.1679 5.58335H13.8346C14.5927 5.58335 15.2096 4.96645 15.2096 4.20835C15.2096 3.45025 14.5927 2.83335 13.8346 2.83335ZM17.9596 21.1667C18.4647 21.1667 18.8763 20.756 18.8763 20.25H18.8762V6.5C18.8762 5.994 18.4647 5.58335 17.9596 5.58335H16.7212C16.2042 6.6632 15.1097 7.4167 13.8346 7.4167H10.1679C8.89283 7.4167 7.79833 6.6632 7.28133 5.58335H6.04293C5.53787 5.58335 5.12627 5.994 5.12627 6.5V20.25C5.12627 20.756 5.53787 21.1667 6.04293 21.1667H17.9596ZM16.1263 10.1665H7.87631C7.37031 10.1665 6.95966 10.5763 6.95966 11.0832C6.95966 11.5901 7.37031 11.9998 7.87631 11.9998H16.1263C16.6323 11.9998 17.043 11.5901 17.043 11.0832C17.043 10.5763 16.6323 10.1665 16.1263 10.1665ZM16.1263 14.75H7.87631C7.37031 14.75 6.95966 15.1597 6.95966 15.6667C6.95966 16.1736 7.37031 16.5833 7.87631 16.5833H16.1263C16.6323 16.5833 17.043 16.1736 17.043 15.6667C17.043 15.1597 16.6323 14.75 16.1263 14.75Z" fill="#49454E"/>
</svg>