<svg xmlns="http://www.w3.org/2000/svg" width="24" height="24" viewBox="0 0 24 24" fill="none">
  <path fill-rule="evenodd" clip-rule="evenodd" d="M15 9C15 9.55228 15.4477 10 16 10C16.5523 10 17 9.55228 17 9V6.41421C17 6.149 16.8946 5.89464 16.7071 5.70711L13.2929 2.29289C13.1054 2.10536 12.851 2 12.5858 2H3C2.44772 2 2 2.44772 2 3V21C2 21.5523 2.44772 22 3 22H11C11.5523 22 12 21.5523 12 21C12 20.4477 11.5523 20 11 20H4V4H11V6C11 7.10457 11.8954 8 13 8H15V9ZM14.1716 6L13 4.82843V6H14.1716ZM5 6C5 5.44772 5.44772 5 6 5H9C9.55228 5 10 5.44772 10 6C10 6.55228 9.55228 7 9 7H6C5.44772 7 5 6.55228 5 6ZM5 10C5 9.44772 5.44772 9 6 9H10C10.5523 9 11 9.44772 11 10C11 10.5523 10.5523 11 10 11H6C5.44772 11 5 10.5523 5 10ZM6 13C5.44772 13 5 13.4477 5 14C5 14.5523 5.44772 15 6 15H8C8.55228 15 9 14.5523 9 14C9 13.4477 8.55228 13 8 13H6Z" fill="#49454E"/>
  <path fill-rule="evenodd" clip-rule="evenodd" d="M17 22C19.7614 22 22 19.7614 22 17C22 14.2386 19.7614 12 17 12C14.2386 12 12 14.2386 12 17C12 19.7614 14.2386 22 17 22ZM17 20.3333C18.0348 20.3333 18.9594 19.8618 19.5708 19.122L16.6905 17.9699C16.4702 17.8817 16.2979 17.7039 16.2168 17.4809L15.057 14.2912C14.215 14.8962 13.6667 15.8841 13.6667 17C13.6667 18.8409 15.1591 20.3333 17 20.3333ZM17.6557 16.5609L20.2777 17.6097C20.3142 17.412 20.3333 17.2082 20.3333 17C20.3333 15.1591 18.8409 13.6667 17 13.6667C16.8686 13.6667 16.7389 13.6743 16.6114 13.6891L17.6557 16.5609Z" fill="#49454E"/>
</svg>