<svg xmlns="http://www.w3.org/2000/svg" width="24" height="24" viewBox="0 0 24 24" fill="none">
  <path fill-rule="evenodd" clip-rule="evenodd" d="M15.3112 21.0298C15.2112 21.7098 14.5912 22.2498 13.8512 22.2498H10.1512C9.41121 22.2498 8.79121 21.7098 8.70121 20.9798L8.43121 19.0898C8.16121 18.9498 7.90121 18.7998 7.64121 18.6298L5.84121 19.3498C5.14121 19.6098 4.37121 19.3198 4.03121 18.6998L2.20121 15.5298C1.85121 14.8698 2.00121 14.0898 2.56121 13.6498L4.09121 12.4598C4.08121 12.3098 4.07121 12.1598 4.07121 11.9998C4.07121 11.8498 4.08121 11.6898 4.09121 11.5398L2.57121 10.3498C1.98121 9.89977 1.83121 9.08977 2.20121 8.46977L4.05121 5.27977C4.39121 4.65977 5.16121 4.37977 5.84121 4.64977L7.65121 5.37977C7.91121 5.20977 8.17121 5.05977 8.43121 4.91977L8.70121 3.00977C8.79121 2.30977 9.41121 1.75977 10.1412 1.75977H13.8412C14.5812 1.75977 15.2012 2.29977 15.2912 3.02977L15.5612 4.91977C15.8312 5.05977 16.0912 5.20977 16.3512 5.37977L18.1512 4.65977C18.8612 4.39977 19.6312 4.68977 19.9712 5.30977L21.8112 8.48977C22.1712 9.14977 22.0112 9.92977 21.4512 10.3698L19.9312 11.5598C19.9412 11.7098 19.9512 11.8598 19.9512 12.0198C19.9512 12.1798 19.9412 12.3298 19.9312 12.4798L21.4512 13.6698C22.0112 14.1198 22.1712 14.8998 21.8212 15.5298L19.9612 18.7498C19.6212 19.3698 18.8512 19.6498 18.1612 19.3798L16.3612 18.6598C16.1012 18.8298 15.8412 18.9798 15.5812 19.1198L15.3112 21.0298ZM10.6212 20.2498H13.3812L13.7512 17.6998L14.2812 17.4798C14.7212 17.2998 15.1612 17.0398 15.6212 16.6998L16.0712 16.3598L18.4512 17.3198L19.8312 14.9198L17.8012 13.3398L17.8712 12.7798L17.8743 12.7528C17.9032 12.5025 17.9312 12.2604 17.9312 11.9998C17.9312 11.7298 17.9012 11.4698 17.8712 11.2198L17.8012 10.6598L19.8312 9.07977L18.4412 6.67977L16.0512 7.63977L15.6012 7.28977C15.1812 6.96977 14.7312 6.70977 14.2712 6.51977L13.7512 6.29977L13.3812 3.74977H10.6212L10.2512 6.29977L9.72121 6.50977C9.28121 6.69977 8.84121 6.94977 8.38121 7.29977L7.93121 7.62977L5.55121 6.67977L4.16121 9.06977L6.19121 10.6498L6.12121 11.2098C6.09121 11.4698 6.06121 11.7398 6.06121 11.9998C6.06121 12.2598 6.08121 12.5298 6.12121 12.7798L6.19121 13.3398L4.16121 14.9198L5.54121 17.3198L7.93121 16.3598L8.38121 16.7098C8.81121 17.0398 9.24121 17.2898 9.71121 17.4798L10.2412 17.6998L10.6212 20.2498ZM15.5012 11.9998C15.5012 13.9328 13.9342 15.4998 12.0012 15.4998C10.0682 15.4998 8.50121 13.9328 8.50121 11.9998C8.50121 10.0668 10.0682 8.49977 12.0012 8.49977C13.9342 8.49977 15.5012 10.0668 15.5012 11.9998Z" fill="#49454E"/>
</svg>