<svg xmlns="http://www.w3.org/2000/svg" width="40" height="40" viewBox="0 0 40 40" fill="none">
  <path fill-rule="evenodd" clip-rule="evenodd" d="M22 2.9C22 2.4 22.4 2 22.9 2C31.2 2 38 8.8 38 17.1C38 17.6 37.6 18 37.1 18H22.9C22.4 18 22 17.6 22 17.1V2.9ZM23.8 16.2H36.1C35.6 9.6 30.4 4.4 23.8 3.9V16.2ZM20 20H34C34.6 20 35 20.4 35 21C35 29.8 27.8 37 19 37C10.2 37 3 29.8 3 21C3 12.2 10.2 5 19 5C19.6 5 20 5.4 20 6V20ZM5 21C5 28.7 11.3 35 19 35C26.4 35 32.4 29.3 32.9 22H19C18.4 22 18 21.6 18 21V7.1C10.7 7.6 5 13.6 5 21Z" fill="#49454E"/>
</svg>