<svg xmlns="http://www.w3.org/2000/svg" width="24" height="24" viewBox="0 0 24 24" fill="none">
  <path fill-rule="evenodd" clip-rule="evenodd" d="M9.39995 2C7.65223 2 6.19995 3.45228 6.19995 5.2C6.19995 6.56421 7.08481 7.74843 8.30435 8.20244C8.0475 8.90601 7.90524 9.66469 7.90017 10.4559C4.55653 11.1606 2 14.1651 2 17.6999C2 18.2521 1.55228 18.6999 1 18.6999C0.447715 18.6999 0 18.2521 0 17.6999C0 13.7949 2.44003 10.4095 5.86459 8.99921C4.84288 8.04707 4.19995 6.69262 4.19995 5.2C4.19995 2.34771 6.54766 0 9.39995 0C11.7689 0 13.7899 1.61952 14.4067 3.80254C13.7141 3.82217 13.0477 3.94695 12.423 4.16149C11.9851 2.91258 10.7854 2 9.39995 2ZM19.8 10.4002C19.8 11.9386 19.132 13.3209 18.0702 14.273C21.529 15.6669 24 19.0704 24 23.0001C24 23.5524 23.5523 24.0001 23 24.0001C22.4477 24.0001 22 23.5524 22 23.0001C22 18.9607 18.6613 15.6138 14.6247 15.6002H14.6H14.5753C10.5386 15.6138 7.19995 18.9607 7.19995 23.0001C7.19995 23.5524 6.75224 24.0001 6.19995 24.0001C5.64767 24.0001 5.19995 23.5524 5.19995 23.0001C5.19995 19.0704 7.67102 15.6669 11.1298 14.2729C10.068 13.3209 9.40002 11.9386 9.40002 10.4002C9.40002 7.52833 11.7282 5.2002 14.6 5.2002C17.4719 5.2002 19.8 7.52833 19.8 10.4002ZM11.4 10.4002C11.4 8.63289 12.8327 7.2002 14.6 7.2002C16.3673 7.2002 17.8 8.63288 17.8 10.4002C17.8 12.1603 16.3791 13.5884 14.6219 13.6002L14.6 13.6001L14.5781 13.6002C12.8209 13.5884 11.4 12.1602 11.4 10.4002Z" fill="#49454E"/>
</svg>