<svg width="393" height="852" viewBox="0 0 393 852" fill="none" xmlns="http://www.w3.org/2000/svg">
<g clip-path="url(#clip0_8686_28425)">
<rect width="393" height="852" fill="white"/>
<rect width="393" height="852" fill="#5B27D9"/>
<g filter="url(#filter0_f_8686_28425)">
<circle cx="197" cy="378" r="106" fill="url(#paint0_radial_8686_28425)"/>
</g>
<g clip-path="url(#clip1_8686_28425)">
<path d="M216.047 408.756C218.909 422.316 233.157 433.959 234.057 434.489C234.958 435.019 208.263 435.291 208.263 435.291C208.263 435.291 200.416 416.542 203.808 408.279C204.122 407.512 216.047 408.756 216.047 408.756Z" fill="#A08BE8"/>
<path d="M209.381 433.458L232.8 433.573C232.8 433.573 238.243 437.227 239.689 439.863C240.795 441.879 240.718 446.401 240.622 448.42C240.595 448.982 240.129 449.421 239.567 449.421L216.98 449.378C216.255 449.376 215.669 448.787 215.677 448.06C215.701 445.559 215.272 440.236 214.331 438.715C212.922 436.444 209.381 433.458 209.381 433.458Z" fill="#D0C5F3"/>
<path d="M202.278 406.431C197.96 421.507 199.726 445.408 199.907 446.673C200.158 448.425 200.395 449.65 202.886 449.65C205.987 449.65 219.305 449.65 219.305 449.65L212.312 407.403L202.278 406.431Z" fill="#8065E0"/>
<path d="M216.047 408.756C217.091 416.154 224.474 426.55 238.461 437.429C240.097 438.699 240.936 440.044 240.936 441.935V447.991C240.936 448.886 240.209 449.613 239.314 449.613H216.862C216.228 449.613 215.717 449.099 215.717 448.468V441.477C215.717 439.299 215.277 438.18 213.042 436.577C207.447 432.564 203.912 419.03 203.797 409.405C203.683 399.781 216.047 408.756 216.047 408.756Z" fill="#A08BE8"/>
<path d="M240.725 440.449C240.861 440.91 240.936 441.4 240.936 441.938V447.994C240.936 448.888 240.209 449.615 239.313 449.615H216.86C216.225 449.615 215.714 449.101 215.714 448.47V441.48C215.714 441.107 215.701 440.766 215.666 440.449H240.725Z" fill="#D0C5F3"/>
<path d="M191.733 406.431C196.052 421.507 194.286 445.408 194.105 446.673C193.854 448.425 193.617 449.65 191.126 449.65C188.025 449.65 174.707 449.65 174.707 449.65L181.7 407.403L191.733 406.431Z" fill="#8065E0"/>
<path d="M177.962 408.756C176.918 416.154 169.535 426.55 155.548 437.429C153.913 438.699 153.073 440.044 153.073 441.935V447.991C153.073 448.886 153.801 449.613 154.696 449.613H177.147C177.781 449.613 178.293 449.099 178.293 448.468V441.477C178.293 439.299 178.732 438.18 180.967 436.577C186.562 432.564 190.098 419.03 190.212 409.405C190.327 399.781 177.962 408.756 177.962 408.756Z" fill="#A08BE8"/>
<path d="M153.284 440.449C153.148 440.91 153.073 441.4 153.073 441.938V447.994C153.073 448.888 153.801 449.615 154.696 449.615H177.15C177.784 449.615 178.295 449.101 178.295 448.47V441.48C178.295 441.107 178.309 440.766 178.343 440.449H153.284Z" fill="#D0C5F3"/>
<path d="M202.812 359.27L202.847 392.29L214.708 392.279L214.673 359.257L202.812 359.27Z" fill="url(#paint1_linear_8686_28425)"/>
<path d="M214.654 377.709H202.782V379.257H214.654V377.709Z" fill="#A08BE8"/>
<path d="M178.424 359.27L178.461 392.29L190.322 392.279L190.285 359.257L178.424 359.27Z" fill="url(#paint2_linear_8686_28425)"/>
<path d="M190.266 377.709H178.394V379.257H190.266V377.709Z" fill="#A08BE8"/>
<path d="M127.798 382.103C119.22 376.53 108.899 364.391 108.054 348.533C107.54 338.906 110.46 324.557 127.281 310.882L134.866 320.203C124.655 328.503 119.534 338.08 120.059 347.893C120.626 358.519 127.644 367.67 134.35 372.029L127.798 382.103Z" fill="url(#paint3_linear_8686_28425)"/>
<path d="M265.17 317.753L287.978 310.384L284.197 299.146L261.389 306.514L265.17 317.753Z" fill="url(#paint4_linear_8686_28425)"/>
<path d="M274.233 302.367L272.917 302.809L276.699 314.046L278.014 313.604L274.233 302.367Z" fill="#A08BE8"/>
<path d="M258.131 324.117C264.269 324.117 269.246 319.143 269.246 313.007C269.246 306.871 264.269 301.896 258.131 301.896C251.992 301.896 247.016 306.871 247.016 313.007C247.016 319.143 251.992 324.117 258.131 324.117Z" fill="url(#paint5_radial_8686_28425)"/>
<path d="M135.141 324.117C141.279 324.117 146.256 319.143 146.256 313.007C146.256 306.871 141.279 301.896 135.141 301.896C129.002 301.896 124.026 306.871 124.026 313.007C124.026 319.143 129.002 324.117 135.141 324.117Z" fill="url(#paint6_radial_8686_28425)"/>
<path d="M196.87 367.06C230.3 367.06 257.401 339.97 257.401 306.554C257.401 273.138 230.3 246.049 196.87 246.049C163.44 246.049 136.34 273.138 136.34 306.554C136.34 339.97 163.44 367.06 196.87 367.06Z" fill="url(#paint7_radial_8686_28425)"/>
<path d="M247.072 306.554C247.072 313.105 245.806 319.361 243.518 325.097C242.964 326.488 241.615 327.398 240.118 327.398H153.623C152.125 327.398 150.777 326.488 150.223 325.097C147.934 319.361 146.669 313.105 146.669 306.554C146.669 303.875 146.885 301.247 147.295 298.682C147.575 296.922 149.117 295.638 150.9 295.638H242.844C244.626 295.638 246.169 296.922 246.448 298.682C246.856 301.249 247.072 303.875 247.072 306.554Z" fill="url(#paint8_radial_8686_28425)"/>
<path d="M144.681 337.196H249.059C246.717 341.174 243.93 344.858 240.771 348.186H152.969C149.81 344.858 147.026 341.174 144.681 337.196Z" fill="url(#paint9_radial_8686_28425)"/>
<path d="M147.29 298.685C147.569 296.925 149.112 295.641 150.894 295.641H155.114C153.332 295.641 151.789 296.925 151.51 298.685C151.102 301.25 150.884 303.878 150.884 306.557C150.884 311.636 151.651 316.53 153.06 321.148C153.58 322.418 154.952 323.183 156.351 323.183H237.353C238.85 323.183 240.329 322.317 240.752 320.882C241.053 319.859 241.325 318.818 241.573 317.787C242.404 314.176 242.854 310.421 242.854 306.56C242.854 303.881 242.638 301.252 242.228 298.688C241.948 296.927 240.406 295.644 238.624 295.644H242.844C244.626 295.644 246.169 296.927 246.448 298.688C246.856 301.252 247.074 303.881 247.074 306.56C247.074 313.111 245.809 319.366 243.52 325.103C242.966 326.493 241.618 327.404 240.121 327.404H235.901H157.84H153.622H153.617C152.12 327.404 150.772 326.493 150.218 325.103C147.929 319.366 146.664 313.111 146.664 306.56C146.664 303.875 146.882 301.25 147.29 298.685Z" fill="url(#paint10_radial_8686_28425)"/>
<path d="M205.643 323.18C205.643 323.18 199.609 318.405 198.429 317.521C197.248 316.637 196.22 316.589 195.141 317.521C194.062 318.453 188.017 323.18 188.017 323.18H205.643Z" fill="#A08BE8"/>
<path d="M295.681 300.664L296.191 272.638L284.332 272.422L283.822 300.448L295.681 300.664Z" fill="#D0C5F3"/>
<path d="M284.085 285.551L284.06 286.938L295.919 287.154L295.944 285.767L284.085 285.551Z" fill="#A08BE8"/>
<path d="M268.316 262.235L281.219 272.984C283.518 274.898 286.936 274.589 288.851 272.291C290.767 269.993 290.458 266.576 288.159 264.661L275.256 253.913C272.957 251.998 269.539 252.307 267.623 254.606C265.708 256.904 266.017 260.318 268.316 262.235Z" fill="#D0C5F3"/>
<path d="M300.808 265.99L305.449 255.697C306.667 252.946 305.422 249.729 302.67 248.512C299.918 247.295 296.7 248.539 295.482 251.29L290.724 261.844L300.808 265.99Z" fill="#D0C5F3"/>
<path d="M298.301 260.427L298.248 244.859C298.227 241.849 295.77 239.429 292.76 239.45C289.749 239.471 287.327 241.927 287.349 244.936L287.351 256.512L298.301 260.427Z" fill="#D0C5F3"/>
<path d="M291.859 262.11L288.268 246.947C287.581 244.017 284.647 242.201 281.717 242.888C278.786 243.575 276.969 246.507 277.657 249.437L281.312 264.88L291.859 262.11Z" fill="#D0C5F3"/>
<path d="M289.837 276.437C296.138 276.437 301.245 271.332 301.245 265.034C301.245 258.736 296.138 253.631 289.837 253.631C283.537 253.631 278.429 258.736 278.429 265.034C278.429 271.332 283.537 276.437 289.837 276.437Z" fill="url(#paint11_radial_8686_28425)"/>
<path d="M282.988 299.55L287.978 310.384C287.978 310.384 295.334 308.45 295.677 300.671C288.106 299.292 283.848 298.517 283.848 298.517L282.988 299.55Z" fill="#A08BE8"/>
<path d="M215.107 391.853H203.547C201.623 391.853 200.062 393.414 200.062 395.336V407.31C200.062 409.232 201.623 410.793 203.547 410.793H215.107C217.03 410.793 218.591 409.232 218.591 407.31V395.336C218.591 393.414 217.03 391.853 215.107 391.853Z" fill="url(#paint12_radial_8686_28425)"/>
<path d="M147.375 366.727L130.726 364.511C127.759 364.117 125.033 366.199 124.639 369.166C124.244 372.133 126.328 374.857 129.296 375.251L145.944 377.467C148.912 377.861 151.638 375.779 152.032 372.812C152.426 369.845 150.34 367.121 147.375 366.727Z" fill="#D0C5F3"/>
<path d="M117.882 380.868L119.446 392.047C119.883 395.025 122.651 397.081 125.63 396.644C128.608 396.207 130.665 393.44 130.228 390.463L128.624 378.998L117.882 380.868Z" fill="#D0C5F3"/>
<path d="M122.974 384.237L131.323 397.379C132.946 399.912 136.316 400.652 138.852 399.027C141.386 397.406 142.127 394.037 140.501 391.502L134.323 381.712L122.974 384.237Z" fill="#D0C5F3"/>
<path d="M127.524 379.379L138.65 390.292C140.794 392.404 144.244 392.378 146.357 390.234C148.47 388.09 148.443 384.641 146.299 382.53L134.968 371.411L127.524 379.379Z" fill="#D0C5F3"/>
<path d="M127.673 387.23C133.974 387.23 139.081 382.124 139.081 375.827C139.081 369.529 133.974 364.423 127.673 364.423C121.373 364.423 116.265 369.529 116.265 375.827C116.265 382.124 121.373 387.23 127.673 387.23Z" fill="url(#paint13_radial_8686_28425)"/>
<path d="M175.346 316.801C177.961 316.762 180.027 313.168 179.961 308.774C179.896 304.379 177.723 300.849 175.109 300.888C172.495 300.927 170.428 304.52 170.494 308.915C170.559 313.309 172.732 316.84 175.346 316.801Z" fill="#512BD4"/>
<path d="M222.715 308.878C222.78 304.484 220.714 300.89 218.099 300.851C215.485 300.812 213.313 304.343 213.247 308.737C213.182 313.131 215.248 316.725 217.862 316.764C220.477 316.803 222.649 313.272 222.715 308.878Z" fill="#512BD4"/>
<path d="M175.189 304.858C173.46 306.586 173.46 309.388 175.189 311.116C176.367 312.293 178.042 312.666 179.537 312.24C179.825 311.188 179.982 310.014 179.963 308.77C179.934 306.775 179.468 304.965 178.724 303.577C177.459 303.465 176.156 303.891 175.189 304.858Z" fill="#8065E0"/>
<path d="M217.92 304.6C216.191 306.328 216.191 309.13 217.92 310.858C219.105 312.043 220.792 312.413 222.294 311.976C222.55 311.026 222.697 309.982 222.715 308.879C222.747 306.725 222.265 304.765 221.458 303.322C220.195 303.207 218.89 303.63 217.92 304.6Z" fill="#8065E0"/>
<path d="M202.635 242.803H190.939L192.589 230.797H200.986L202.635 242.803Z" fill="#D0C5F3"/>
<path d="M196.849 233.205C202.983 233.205 207.956 228.234 207.956 222.102C207.956 215.971 202.983 211 196.849 211C190.715 211 185.742 215.971 185.742 222.102C185.742 228.234 190.715 233.205 196.849 233.205Z" fill="url(#paint14_radial_8686_28425)"/>
<path d="M207.109 250.139C207.636 250.139 208.057 249.684 207.999 249.159C207.381 243.609 202.673 239.292 196.956 239.292C191.238 239.292 186.531 243.609 185.913 249.159C185.854 249.684 186.275 250.139 186.802 250.139H207.109Z" fill="url(#paint15_radial_8686_28425)"/>
<path d="M206.712 332.799H187.183V352.319H206.712V332.799Z" fill="#512BD4"/>
<path d="M190.662 345.27C190.524 345.27 190.407 345.225 190.311 345.132C190.215 345.039 190.167 344.927 190.167 344.796C190.167 344.663 190.215 344.551 190.311 344.455C190.407 344.362 190.524 344.314 190.662 344.314C190.804 344.314 190.921 344.362 191.017 344.455C191.115 344.549 191.166 344.663 191.166 344.796C191.166 344.927 191.115 345.039 191.017 345.132C190.924 345.225 190.804 345.27 190.662 345.27Z" fill="white"/>
<path d="M196.183 345.193H195.285L192.919 341.465C192.861 341.372 192.81 341.273 192.77 341.172H192.749C192.767 341.281 192.775 341.513 192.775 341.87V345.196H191.981V340.123H192.938L195.224 343.763C195.32 343.915 195.384 344.019 195.41 344.075H195.424C195.4 343.941 195.389 343.712 195.389 343.393V340.123H196.18V345.193H196.183Z" fill="white"/>
<path d="M200.051 345.193H197.272V340.12H199.942V340.834H198.096V342.269H199.798V342.98H198.096V344.479H200.054V345.193H200.051Z" fill="white"/>
<path d="M204 340.834H202.577V345.193H201.756V340.834H200.336V340.12H204V340.834Z" fill="white"/>
<path d="M190.601 391.853H179.041C177.118 391.853 175.557 393.414 175.557 395.336V407.31C175.557 409.232 177.118 410.793 179.041 410.793H190.601C192.525 410.793 194.086 409.232 194.086 407.31V395.336C194.086 393.414 192.525 391.853 190.601 391.853Z" fill="url(#paint16_radial_8686_28425)"/>
<path d="M143.386 313.774C144.519 313.822 145.523 314.626 145.774 315.787C149.962 335.089 165.086 350.49 184.306 355.025C185.681 355.35 186.533 356.727 186.208 358.101C185.883 359.475 184.506 360.327 183.131 360.002C162.004 355.02 145.379 338.088 140.776 316.874C140.477 315.494 141.354 314.133 142.734 313.832C142.952 313.782 143.171 313.763 143.386 313.774Z" fill="url(#paint17_radial_8686_28425)"/>
<path d="M249.019 297.894C247.887 297.846 246.882 297.042 246.632 295.881C242.444 276.578 227.319 261.178 208.1 256.643C206.725 256.318 205.873 254.941 206.198 253.567C206.523 252.193 207.9 251.34 209.275 251.665C230.402 256.648 247.026 273.58 251.63 294.794C251.928 296.173 251.052 297.534 249.672 297.835C249.453 297.886 249.232 297.904 249.019 297.894Z" fill="url(#paint18_radial_8686_28425)"/>
<path d="M122.164 356.873L111.237 361.485L111.777 362.763L122.704 358.151L122.164 356.873Z" fill="#A08BE8"/>
<path d="M116.422 322.34L115.641 323.488L125.449 330.154L126.23 329.007L116.422 322.34Z" fill="#A08BE8"/>
</g>
<path opacity="0.8" d="M163.785 548.084H170.875C170.738 551.17 170.113 553.797 169 555.965C167.887 558.113 166.285 559.754 164.195 560.887C162.125 562.02 159.596 562.586 156.607 562.586C154.342 562.586 152.311 562.176 150.514 561.355C148.736 560.535 147.223 559.354 145.973 557.811C144.723 556.248 143.766 554.344 143.102 552.098C142.457 549.852 142.135 547.303 142.135 544.451V536.893C142.135 534.041 142.467 531.492 143.131 529.246C143.814 527 144.791 525.096 146.061 523.533C147.33 521.971 148.873 520.789 150.689 519.988C152.525 519.168 154.596 518.758 156.9 518.758C159.85 518.758 162.33 519.324 164.342 520.457C166.354 521.59 167.906 523.25 169 525.438C170.094 527.625 170.729 530.291 170.904 533.436H163.814C163.717 531.307 163.424 529.607 162.936 528.338C162.467 527.049 161.744 526.121 160.768 525.555C159.811 524.988 158.521 524.705 156.9 524.705C155.553 524.705 154.391 524.959 153.414 525.467C152.457 525.975 151.666 526.736 151.041 527.752C150.436 528.748 149.977 530.008 149.664 531.531C149.371 533.035 149.225 534.803 149.225 536.834V544.451C149.225 546.404 149.352 548.133 149.605 549.637C149.859 551.141 150.27 552.42 150.836 553.475C151.402 554.51 152.154 555.301 153.092 555.848C154.029 556.375 155.201 556.639 156.607 556.639C158.287 556.639 159.625 556.375 160.621 555.848C161.637 555.32 162.389 554.432 162.877 553.182C163.365 551.932 163.668 550.232 163.785 548.084ZM178.428 519.344H191.318C194.131 519.344 196.514 519.832 198.467 520.809C200.42 521.785 201.904 523.23 202.92 525.145C203.955 527.039 204.473 529.393 204.473 532.205C204.473 534.334 204.15 536.209 203.506 537.83C202.881 539.451 201.973 540.818 200.781 541.932C199.59 543.025 198.154 543.875 196.475 544.48L194.395 545.623H183.496L183.467 539.646H191.143C192.529 539.646 193.682 539.344 194.6 538.738C195.518 538.133 196.201 537.293 196.65 536.219C197.119 535.145 197.354 533.924 197.354 532.557C197.354 531.092 197.149 529.822 196.738 528.748C196.328 527.654 195.684 526.814 194.805 526.229C193.926 525.623 192.764 525.32 191.318 525.32H185.547V562H178.428V519.344ZM198.291 562L190.176 542.84L197.588 542.811L205.908 561.619V562H198.291ZM214.662 519.344H221.137L230.951 551.072L240.737 519.344H246.742L233.617 562H228.256L214.662 519.344ZM212.231 519.344H218.207L219.174 546.502V562H212.231V519.344ZM243.637 519.344H249.643V562H242.699V546.502L243.637 519.344Z" fill="white"/>
<g opacity="0.8">
<path d="M229 588V607H226V588H229Z" fill="white"/>
<path d="M217.78 588H221V600.525C221 601.95 220.691 603.143 220.073 604.104C219.454 605.065 218.613 605.79 217.548 606.279C216.492 606.76 215.312 607 214.006 607C212.658 607 211.456 606.76 210.4 606.279C209.344 605.79 208.511 605.065 207.902 604.104C207.301 603.143 207 601.95 207 600.525V588H210.22V600.525C210.22 601.426 210.374 602.168 210.684 602.752C210.993 603.327 211.431 603.752 211.997 604.026C212.564 604.301 213.234 604.438 214.006 604.438C214.779 604.438 215.445 604.301 216.003 604.026C216.569 603.752 217.007 603.327 217.316 602.752C217.626 602.168 217.78 601.426 217.78 600.525V588Z" fill="white"/>
<path d="M195.949 590.532L190.372 607H187L194.026 588H196.179L195.949 590.532ZM200.615 607L195.026 590.532L194.782 588H196.949L204 607H200.615ZM200.346 599.953V602.55H190.192V599.953H200.346Z" fill="white"/>
<path d="M165.297 588H168.146L173.5 602.655L178.841 588H181.69L174.619 607H172.355L165.297 588ZM164 588H166.709L167.179 600.684V607H164V588ZM180.278 588H183V607H179.808V600.684L180.278 588Z" fill="white"/>
</g>
<path opacity="0.5" fill-rule="evenodd" clip-rule="evenodd" d="M122.4 720H143.6C144.4 720 145 720.6 145 721.4V722.5C145 723.3 144.4 723.5 144.1 723.5C132.7 724.9 125.2 729.7 121 734.1V721.4C121 720.6 121.6 720 122.4 720ZM152.5 723.8C153.7 723.5 155.3 723.4 156.9 723.4C159.7 723.4 161.6 723.9 163 725.1C164.6 726.5 165.5 728.5 165.5 731.6C165.5 735.2 164.3 737.3 163 738.5C161.5 739.9 159.1 740.6 156.2 740.6C154.6 740.6 153.4 740.5 152.5 740.4V723.8ZM155.7 737.8C156.1 737.9 156.6 737.9 157 737.9C160.1 738 162.2 736 162.1 731.6C162.1 727.8 160.2 725.9 157.2 725.9C156.6 725.9 156.1 725.9 155.7 726V737.8ZM167.2 734.4C167.2 730.9 169.2 727.9 172.8 727.9C175.8 727.9 177.7 730 177.7 734C177.7 734.5 177.7 734.9 177.6 735.3H170.3C170.3 737.4 171.8 738.2 173.6 738.2C174.8 738.2 175.8 738 176.6 737.7L177.1 739.9C176 740.3 174.6 740.6 173.1 740.6C169.4 740.6 167.2 738.2 167.2 734.4ZM172.6 730.2C171 730.2 170.4 731.8 170.3 733H174.7C174.7 731.8 174.2 730.2 172.6 730.2ZM186.8 728.1L185.3 734C185 735.1 184.8 736.1 184.6 737.1H184.5C184.3 736 184.1 735 183.8 734L182.2 728.1H178.7L182.8 740.3H186L190.2 728.1H186.8ZM200.8 732.9H195.2V737.6H201.4V740.4H192V723.5H201.1V726.2H195.2V730.3H200.8V732.9ZM213.7 728.1H210.3L209.2 730.3C208.9 730.9 208.6 731.6 208.3 732.299L208.3 732.3C208.15 732 208 731.675 207.85 731.35C207.7 731.025 207.55 730.7 207.4 730.4L206.2 728.2H202.6L206.2 734.2L202.5 740.4H206L207 738C207.15 737.7 207.3 737.375 207.45 737.05L207.45 737.05C207.6 736.725 207.75 736.4 207.9 736.1C208.2 736.8 208.5 737.4 208.8 738L210 740.4H213.6L210.1 734L213.7 728.1ZM218.4 729.8C219.2 728.6 220.4 727.9 222 727.9C224.6 727.9 226.6 730.4 226.6 734C226.6 738.5 224.1 740.5 221.6 740.5C220.3 740.5 219.2 739.9 218.7 739.1V745.2H215.5V732.1C215.5 731.226 215.47 730.442 215.443 729.731V729.73V729.73V729.73V729.73V729.729V729.729V729.729L215.443 729.728C215.42 729.138 215.4 728.599 215.4 728.1H218.2L218.4 729.8ZM218.6 735.5C218.6 737.2 219.7 738.1 220.8 738.1C222.5 738.1 223.3 736.4 223.2 734.3C223.2 732.1 222.4 730.5 220.8 730.5C219.6 730.5 218.6 731.7 218.6 733.2V735.5ZM231.8 730.3L231.6 728.2H228.8C228.8 728.707 228.821 729.236 228.844 729.806L228.844 729.806C228.871 730.471 228.9 731.192 228.9 732V740.4H232.2V734C232.2 731.9 233.3 730.9 234.8 730.9C235.1 730.9 235.4 730.9 235.6 731V727.9C235.51 727.9 235.42 727.88 235.321 727.858C235.2 727.83 235.065 727.8 234.9 727.8C233.7 727.9 232.4 728.7 231.8 730.3ZM236.7 734.4C236.7 730.9 238.7 727.9 242.3 727.9C245.3 727.9 247.2 730 247.2 734C247.2 734.5 247.2 734.9 247.1 735.3H239.8C239.9 737.4 241.3 738.2 243.1 738.2C244.3 738.2 245.3 738 246.1 737.7L246.6 739.9C245.5 740.3 244.1 740.6 242.6 740.6C238.9 740.6 236.7 738.2 236.7 734.4ZM242.1 730.2C240.5 730.2 239.9 731.8 239.8 733H244.2C244.2 731.8 243.7 730.2 242.1 730.2ZM254 733C252.6 732.4 252.1 732.1 252.1 731.4C252.1 730.7 252.6 730.2 253.6 730.2C254.5 730.2 255.4 730.5 255.9 730.8L256.5 728.5C255.8 728.1 254.7 727.8 253.5 727.8C250.8 727.8 249 729.5 249 731.7C249 733 249.8 734.3 252.1 735.3C253.4 735.9 253.9 736.3 253.9 737C253.9 737.7 253.4 738.2 252.2 738.2C251.2 738.2 250 737.8 249.3 737.4L248.7 739.7C249.5 740.2 250.8 740.5 252.1 740.5C255.2 740.5 256.9 739 256.9 736.6C257 735 256 733.8 254 733ZM261.8 731.4C261.8 732.1 262.3 732.4 263.7 733C265.8 733.8 266.7 735 266.6 736.6C266.6 739 264.9 740.5 261.8 740.5C260.5 740.5 259.2 740.2 258.4 739.7L259 737.4C259.7 737.8 260.9 738.2 261.9 738.2C263.1 738.2 263.6 737.7 263.6 737C263.6 736.3 263.1 735.9 261.8 735.3C259.5 734.3 258.7 733 258.7 731.7C258.7 729.5 260.5 727.8 263.2 727.8C264.4 727.8 265.5 728.1 266.2 728.5L265.6 730.8C265.1 730.5 264.2 730.2 263.3 730.2C262.3 730.2 261.8 730.7 261.8 731.4ZM122.422 739.567L122.422 739.567C121.946 740.193 121.552 740.711 121.3 741.3C121.2 741.4 121 741.9 121 742.2V742.6C121 743.4 121.6 744 122.4 744H143.6C144.4 744 145 743.4 145 742.6V726.3C133.4 728.3 126.3 734.6 122.7 739.2C122.605 739.327 122.512 739.449 122.422 739.567ZM269.9 727.4C270.3 727.3 270.4 727.1 270.4 726.8C270.4 726.6 270.3 726.4 270.2 726.3C270.1 726.2 269.8 726.1 269.6 726.1H268.9V728.3H269.3V727.4H269.5C269.6 727.4 269.7 727.5 269.8 727.7L270 728.3H270.5L270.2 727.7L269.9 727.4ZM269.5 727.2H269.2V726.6H269.5C269.8 726.6 269.9 726.7 269.9 726.9C269.9 727 269.9 727.1 269.8 727.1C269.8 727.2 269.7 727.2 269.5 727.2ZM269.6 725.6C270.1 725.6 270.6 725.8 270.9 726.1C271.2 726.4 271.4 726.8 271.4 727.4C271.4 727.9 271.3 728.4 270.9 728.7C270.5 729 270.1 729.2 269.6 729.2C269.1 729.2 268.6 729 268.3 728.7C268 728.3 267.8 727.9 267.8 727.4C267.8 726.9 267.9 726.4 268.3 726.1C268.6 725.8 269.1 725.6 269.6 725.6ZM269.5 728.8C269.9 728.8 270.3 728.7 270.6 728.4C270.9 728.1 271.1 727.8 271 727.3C271 726.9 270.9 726.5 270.6 726.2C270.3 725.9 269.9 725.8 269.5 725.8C269.1 725.8 268.7 725.9 268.4 726.2C268.1 726.5 268 726.9 268 727.3C268 727.7 268.1 728.1 268.4 728.4C268.7 728.7 269.1 728.8 269.5 728.8Z" fill="white"/>
</g>
<defs>
<filter id="filter0_f_8686_28425" x="-9" y="172" width="412" height="412" filterUnits="userSpaceOnUse" color-interpolation-filters="sRGB">
<feFlood flood-opacity="0" result="BackgroundImageFix"/>
<feBlend mode="normal" in="SourceGraphic" in2="BackgroundImageFix" result="shape"/>
<feGaussianBlur stdDeviation="50" result="effect1_foregroundBlur_8686_28425"/>
</filter>
<radialGradient id="paint0_radial_8686_28425" cx="0" cy="0" r="1" gradientUnits="userSpaceOnUse" gradientTransform="translate(197 378) rotate(90) scale(106)">
<stop stop-color="#9E89E8"/>
<stop offset="1" stop-color="#7615EA" stop-opacity="0"/>
</radialGradient>
<linearGradient id="paint1_linear_8686_28425" x1="208.76" y1="359.258" x2="208.76" y2="392.291" gradientUnits="userSpaceOnUse">
<stop offset="0.2368" stop-color="#958FE7"/>
<stop offset="0.4881" stop-color="#BBB7EF"/>
</linearGradient>
<linearGradient id="paint2_linear_8686_28425" x1="184.373" y1="359.258" x2="184.373" y2="392.291" gradientUnits="userSpaceOnUse">
<stop offset="0.2368" stop-color="#958FE7"/>
<stop offset="0.4881" stop-color="#BBB7EF"/>
</linearGradient>
<linearGradient id="paint3_linear_8686_28425" x1="141.404" y1="319.032" x2="110.7" y2="372.235" gradientUnits="userSpaceOnUse">
<stop offset="0.1197" stop-color="#958FE7"/>
<stop offset="0.2551" stop-color="#BBB7EF"/>
</linearGradient>
<linearGradient id="paint4_linear_8686_28425" x1="263.292" y1="312.593" x2="286.073" y2="304.298" gradientUnits="userSpaceOnUse">
<stop offset="0.1918" stop-color="#958FE7"/>
<stop offset="0.4956" stop-color="#BBB7EF"/>
</linearGradient>
<radialGradient id="paint5_radial_8686_28425" cx="0" cy="0" r="1" gradientUnits="userSpaceOnUse" gradientTransform="translate(262.425 305.106) scale(21.2351 21.2263)">
<stop stop-color="#8065E0"/>
<stop offset="1" stop-color="#512BD4"/>
</radialGradient>
<radialGradient id="paint6_radial_8686_28425" cx="0" cy="0" r="1" gradientUnits="userSpaceOnUse" gradientTransform="translate(129.354 306.519) scale(18.7521 18.7443)">
<stop stop-color="#8065E0"/>
<stop offset="1" stop-color="#512BD4"/>
</radialGradient>
<radialGradient id="paint7_radial_8686_28425" cx="0" cy="0" r="1" gradientUnits="userSpaceOnUse" gradientTransform="translate(212.581 269.942) scale(82.3555 82.3213)">
<stop offset="0.186" stop-color="#A08BE8"/>
<stop offset="0.7272" stop-color="#8065E0"/>
</radialGradient>
<radialGradient id="paint8_radial_8686_28425" cx="0" cy="0" r="1" gradientUnits="userSpaceOnUse" gradientTransform="translate(158.174 289.209) scale(70.1068 70.0777)">
<stop offset="0.0933" stop-color="#E1DFDD"/>
<stop offset="0.6573" stop-color="white"/>
</radialGradient>
<radialGradient id="paint9_radial_8686_28425" cx="0" cy="0" r="1" gradientUnits="userSpaceOnUse" gradientTransform="translate(149.263 341.624) scale(37.1072 37.0918)">
<stop offset="0.4614" stop-color="#A08BE8"/>
<stop offset="0.5268" stop-color="#A793EA"/>
<stop offset="0.8352" stop-color="#C5B7F0"/>
<stop offset="1" stop-color="#D0C5F3"/>
</radialGradient>
<radialGradient id="paint10_radial_8686_28425" cx="0" cy="0" r="1" gradientUnits="userSpaceOnUse" gradientTransform="translate(184.28 315.856) scale(50.5272 50.5062)">
<stop stop-color="#512BD4"/>
<stop offset="0.4098" stop-color="#6645D9"/>
<stop offset="0.7102" stop-color="#7659DD"/>
<stop offset="0.9583" stop-color="#8065E0"/>
</radialGradient>
<radialGradient id="paint11_radial_8686_28425" cx="0" cy="0" r="1" gradientUnits="userSpaceOnUse" gradientTransform="translate(289.407 257.609) scale(22.7499 22.7404)">
<stop stop-color="#A08BE8"/>
<stop offset="0.9913" stop-color="#8065E0"/>
</radialGradient>
<radialGradient id="paint12_radial_8686_28425" cx="0" cy="0" r="1" gradientUnits="userSpaceOnUse" gradientTransform="translate(209.443 394.874) scale(15.3042 15.2978)">
<stop stop-color="#8065E0"/>
<stop offset="0.8778" stop-color="#512BD4"/>
</radialGradient>
<radialGradient id="paint13_radial_8686_28425" cx="0" cy="0" r="1" gradientUnits="userSpaceOnUse" gradientTransform="translate(127.25 367.663) scale(20.1459 20.1375)">
<stop offset="0.0841" stop-color="#A08BE8"/>
<stop offset="1" stop-color="#8065E0"/>
</radialGradient>
<radialGradient id="paint14_radial_8686_28425" cx="0" cy="0" r="1" gradientUnits="userSpaceOnUse" gradientTransform="translate(197.414 215.725) scale(24.2612 24.2511)">
<stop offset="0.1717" stop-color="#A08BE8"/>
<stop offset="0.9987" stop-color="#8065E0"/>
</radialGradient>
<radialGradient id="paint15_radial_8686_28425" cx="0" cy="0" r="1" gradientUnits="userSpaceOnUse" gradientTransform="translate(197.332 242.13) scale(14.7038 14.6977)">
<stop stop-color="#8065E0"/>
<stop offset="1" stop-color="#512BD4"/>
</radialGradient>
<radialGradient id="paint16_radial_8686_28425" cx="0" cy="0" r="1" gradientUnits="userSpaceOnUse" gradientTransform="translate(183.622 392.513) scale(16.3049 16.2981)">
<stop stop-color="#8065E0"/>
<stop offset="1" stop-color="#512BD4"/>
</radialGradient>
<radialGradient id="paint17_radial_8686_28425" cx="0" cy="0" r="1" gradientUnits="userSpaceOnUse" gradientTransform="translate(163.506 336.904) rotate(-177.525) scale(22.9695 22.96)">
<stop stop-color="#BDB9F0"/>
<stop offset="0.5336" stop-color="#C3BCEB" stop-opacity="0.4"/>
<stop offset="0.6108" stop-color="#CEC3E2" stop-opacity="0.3338"/>
<stop offset="0.8606" stop-color="#EDD6C9" stop-opacity="0.1195"/>
<stop offset="1" stop-color="#F9DDBF" stop-opacity="0"/>
</radialGradient>
<radialGradient id="paint18_radial_8686_28425" cx="0" cy="0" r="1" gradientUnits="userSpaceOnUse" gradientTransform="translate(228.9 274.758) rotate(2.47484) scale(22.9695 22.96)">
<stop stop-color="#BDB9F0"/>
<stop offset="0.5266" stop-color="#C3BCEB" stop-opacity="0.7"/>
<stop offset="0.605" stop-color="#CEC3E2" stop-opacity="0.5841"/>
<stop offset="0.8586" stop-color="#EDD6C9" stop-opacity="0.2092"/>
<stop offset="1" stop-color="#F9DDBF" stop-opacity="0"/>
</radialGradient>
<clipPath id="clip0_8686_28425">
<rect width="393" height="852" fill="white"/>
</clipPath>
<clipPath id="clip1_8686_28425">
<rect width="198" height="239" fill="white" transform="translate(108 211)"/>
</clipPath>
</defs>
</svg>
