<svg width="393" height="852" viewBox="0 0 393 852" fill="none" xmlns="http://www.w3.org/2000/svg">
<g clip-path="url(#clip0_8686_28425)">
<rect width="393" height="852" fill="white"/>
<rect width="393" height="852" fill="#5B27D9"/>
<g filter="url(#filter0_f_8686_28425)">
<circle cx="197" cy="378" r="106" fill="url(#paint0_radial_8686_28425)"/>
</g>
<g clip-path="url(#clip1_8686_28425)">
<path d="M206.047 408.756C208.909 422.316 223.157 433.959 224.057 434.489C224.958 435.019 198.263 435.291 198.263 435.291C198.263 435.291 190.416 416.542 193.808 408.279C194.122 407.512 206.047 408.756 206.047 408.756Z" fill="#A08BE8"/>
<path d="M199.381 433.458L222.8 433.573C222.8 433.573 228.243 437.227 229.689 439.863C230.795 441.879 230.718 446.401 230.622 448.42C230.595 448.982 230.129 449.421 229.567 449.421L206.98 449.378C206.255 449.376 205.669 448.787 205.677 448.06C205.701 445.559 205.272 440.236 204.331 438.715C202.922 436.444 199.381 433.458 199.381 433.458Z" fill="#D0C5F3"/>
<path d="M192.278 406.431C187.96 421.507 189.726 445.408 189.907 446.673C190.158 448.425 190.395 449.65 192.886 449.65C195.987 449.65 209.305 449.65 209.305 449.65L202.312 407.403L192.278 406.431Z" fill="#8065E0"/>
<path d="M206.047 408.756C207.091 416.154 214.474 426.55 228.461 437.429C230.097 438.699 230.936 440.044 230.936 441.935V447.991C230.936 448.886 230.209 449.613 229.314 449.613H206.862C206.228 449.613 205.717 449.099 205.717 448.468V441.477C205.717 439.299 205.277 438.18 203.042 436.577C197.447 432.564 193.912 419.03 193.797 409.405C193.683 399.781 206.047 408.756 206.047 408.756Z" fill="#A08BE8"/>
<path d="M230.725 440.449C230.861 440.91 230.936 441.4 230.936 441.938V447.994C230.936 448.888 230.209 449.615 229.313 449.615H206.86C206.225 449.615 205.714 449.101 205.714 448.47V441.48C205.714 441.107 205.701 440.766 205.666 440.449H230.725Z" fill="#D0C5F3"/>
<path d="M181.733 406.431C186.052 421.507 184.286 445.408 184.105 446.673C183.854 448.425 183.617 449.65 181.126 449.65C178.025 449.65 164.707 449.65 164.707 449.65L171.7 407.403L181.733 406.431Z" fill="#8065E0"/>
<path d="M167.962 408.756C166.918 416.154 159.535 426.55 145.548 437.429C143.913 438.699 143.073 440.044 143.073 441.935V447.991C143.073 448.886 143.801 449.613 144.696 449.613H167.147C167.781 449.613 168.293 449.099 168.293 448.468V441.477C168.293 439.299 168.732 438.18 170.967 436.577C176.562 432.564 180.098 419.03 180.212 409.405C180.327 399.781 167.962 408.756 167.962 408.756Z" fill="#A08BE8"/>
<path d="M143.284 440.449C143.148 440.91 143.073 441.4 143.073 441.938V447.994C143.073 448.888 143.801 449.615 144.696 449.615H167.15C167.784 449.615 168.295 449.101 168.295 448.47V441.48C168.295 441.107 168.309 440.766 168.343 440.449H143.284Z" fill="#D0C5F3"/>
<path d="M192.812 359.27L192.847 392.29L204.708 392.279L204.673 359.257L192.812 359.27Z" fill="url(#paint1_linear_8686_28425)"/>
<path d="M204.654 377.709H192.782V379.257H204.654V377.709Z" fill="#A08BE8"/>
<path d="M168.424 359.27L168.461 392.29L180.322 392.279L180.285 359.257L168.424 359.27Z" fill="url(#paint2_linear_8686_28425)"/>
<path d="M180.266 377.709H168.394V379.257H180.266V377.709Z" fill="#A08BE8"/>
<path d="M117.798 382.103C109.22 376.53 98.8985 364.391 98.054 348.533C97.5398 338.906 100.46 324.557 117.281 310.882L124.866 320.203C114.655 328.503 109.534 338.08 110.059 347.893C110.626 358.519 117.644 367.67 124.35 372.029L117.798 382.103Z" fill="url(#paint3_linear_8686_28425)"/>
<path d="M255.17 317.753L277.978 310.384L274.197 299.146L251.389 306.514L255.17 317.753Z" fill="url(#paint4_linear_8686_28425)"/>
<path d="M264.233 302.367L262.917 302.809L266.699 314.046L268.014 313.604L264.233 302.367Z" fill="#A08BE8"/>
<path d="M248.131 324.117C254.269 324.117 259.246 319.143 259.246 313.007C259.246 306.871 254.269 301.896 248.131 301.896C241.992 301.896 237.016 306.871 237.016 313.007C237.016 319.143 241.992 324.117 248.131 324.117Z" fill="url(#paint5_radial_8686_28425)"/>
<path d="M125.141 324.117C131.279 324.117 136.256 319.143 136.256 313.007C136.256 306.871 131.279 301.896 125.141 301.896C119.002 301.896 114.026 306.871 114.026 313.007C114.026 319.143 119.002 324.117 125.141 324.117Z" fill="url(#paint6_radial_8686_28425)"/>
<path d="M186.87 367.06C220.3 367.06 247.401 339.97 247.401 306.554C247.401 273.138 220.3 246.049 186.87 246.049C153.44 246.049 126.34 273.138 126.34 306.554C126.34 339.97 153.44 367.06 186.87 367.06Z" fill="url(#paint7_radial_8686_28425)"/>
<path d="M237.072 306.554C237.072 313.105 235.806 319.361 233.518 325.097C232.964 326.488 231.615 327.398 230.118 327.398H143.623C142.125 327.398 140.777 326.488 140.223 325.097C137.934 319.361 136.669 313.105 136.669 306.554C136.669 303.875 136.885 301.247 137.295 298.682C137.575 296.922 139.117 295.638 140.9 295.638H232.844C234.626 295.638 236.169 296.922 236.448 298.682C236.856 301.249 237.072 303.875 237.072 306.554Z" fill="url(#paint8_radial_8686_28425)"/>
<path d="M134.681 337.196H239.059C236.717 341.174 233.93 344.858 230.771 348.186H142.969C139.81 344.858 137.026 341.174 134.681 337.196Z" fill="url(#paint9_radial_8686_28425)"/>
<path d="M137.29 298.685C137.569 296.925 139.112 295.641 140.894 295.641H145.114C143.332 295.641 141.789 296.925 141.51 298.685C141.102 301.25 140.884 303.878 140.884 306.557C140.884 311.636 141.651 316.53 143.06 321.148C143.58 322.418 144.952 323.183 146.351 323.183H227.353C228.85 323.183 230.329 322.317 230.752 320.882C231.053 319.859 231.325 318.818 231.573 317.787C232.404 314.176 232.854 310.421 232.854 306.56C232.854 303.881 232.638 301.252 232.228 298.688C231.948 296.927 230.406 295.644 228.624 295.644H232.844C234.626 295.644 236.169 296.927 236.448 298.688C236.856 301.252 237.074 303.881 237.074 306.56C237.074 313.111 235.809 319.366 233.52 325.103C232.966 326.493 231.618 327.404 230.121 327.404H225.901H147.84H143.622H143.617C142.12 327.404 140.772 326.493 140.218 325.103C137.929 319.366 136.664 313.111 136.664 306.56C136.664 303.875 136.882 301.25 137.29 298.685Z" fill="url(#paint10_radial_8686_28425)"/>
<path d="M195.643 323.18C195.643 323.18 189.609 318.405 188.429 317.521C187.248 316.637 186.22 316.589 185.141 317.521C184.062 318.453 178.017 323.18 178.017 323.18H195.643Z" fill="#A08BE8"/>
<path d="M285.681 300.664L286.191 272.638L274.332 272.422L273.822 300.448L285.681 300.664Z" fill="#D0C5F3"/>
<path d="M274.085 285.551L274.06 286.938L285.919 287.154L285.944 285.767L274.085 285.551Z" fill="#A08BE8"/>
<path d="M258.316 262.235L271.219 272.984C273.518 274.898 276.936 274.589 278.851 272.291C280.767 269.993 280.458 266.576 278.159 264.661L265.256 253.913C262.957 251.998 259.539 252.307 257.623 254.606C255.708 256.904 256.017 260.318 258.316 262.235Z" fill="#D0C5F3"/>
<path d="M290.808 265.99L295.449 255.697C296.667 252.946 295.422 249.729 292.67 248.512C289.918 247.295 286.7 248.539 285.482 251.29L280.724 261.844L290.808 265.99Z" fill="#D0C5F3"/>
<path d="M288.301 260.427L288.248 244.859C288.227 241.849 285.77 239.429 282.76 239.45C279.749 239.471 277.327 241.927 277.349 244.936L277.351 256.512L288.301 260.427Z" fill="#D0C5F3"/>
<path d="M281.859 262.11L278.268 246.947C277.581 244.017 274.647 242.201 271.717 242.888C268.786 243.575 266.969 246.507 267.657 249.437L271.312 264.88L281.859 262.11Z" fill="#D0C5F3"/>
<path d="M279.837 276.437C286.138 276.437 291.245 271.332 291.245 265.034C291.245 258.736 286.138 253.631 279.837 253.631C273.537 253.631 268.429 258.736 268.429 265.034C268.429 271.332 273.537 276.437 279.837 276.437Z" fill="url(#paint11_radial_8686_28425)"/>
<path d="M272.988 299.55L277.978 310.384C277.978 310.384 285.334 308.45 285.677 300.671C278.106 299.292 273.848 298.517 273.848 298.517L272.988 299.55Z" fill="#A08BE8"/>
<path d="M205.107 391.853H193.547C191.623 391.853 190.062 393.414 190.062 395.336V407.31C190.062 409.232 191.623 410.793 193.547 410.793H205.107C207.03 410.793 208.591 409.232 208.591 407.31V395.336C208.591 393.414 207.03 391.853 205.107 391.853Z" fill="url(#paint12_radial_8686_28425)"/>
<path d="M137.375 366.727L120.726 364.511C117.759 364.117 115.033 366.199 114.639 369.166C114.244 372.133 116.328 374.857 119.296 375.251L135.944 377.467C138.912 377.861 141.638 375.779 142.032 372.812C142.426 369.845 140.34 367.121 137.375 366.727Z" fill="#D0C5F3"/>
<path d="M107.882 380.868L109.446 392.047C109.883 395.025 112.651 397.081 115.63 396.644C118.608 396.207 120.665 393.44 120.228 390.463L118.624 378.998L107.882 380.868Z" fill="#D0C5F3"/>
<path d="M112.974 384.237L121.323 397.379C122.946 399.912 126.316 400.652 128.852 399.027C131.386 397.406 132.127 394.037 130.501 391.502L124.323 381.712L112.974 384.237Z" fill="#D0C5F3"/>
<path d="M117.524 379.379L128.65 390.292C130.794 392.404 134.244 392.378 136.357 390.234C138.47 388.09 138.443 384.641 136.299 382.53L124.968 371.411L117.524 379.379Z" fill="#D0C5F3"/>
<path d="M117.673 387.23C123.974 387.23 129.081 382.124 129.081 375.827C129.081 369.529 123.974 364.423 117.673 364.423C111.373 364.423 106.265 369.529 106.265 375.827C106.265 382.124 111.373 387.23 117.673 387.23Z" fill="url(#paint13_radial_8686_28425)"/>
<path d="M165.346 316.801C167.961 316.762 170.027 313.168 169.961 308.774C169.896 304.379 167.723 300.849 165.109 300.888C162.495 300.927 160.428 304.52 160.494 308.915C160.559 313.309 162.732 316.84 165.346 316.801Z" fill="#512BD4"/>
<path d="M212.715 308.878C212.78 304.484 210.714 300.89 208.099 300.851C205.485 300.812 203.313 304.343 203.247 308.737C203.182 313.131 205.248 316.725 207.862 316.764C210.477 316.803 212.649 313.272 212.715 308.878Z" fill="#512BD4"/>
<path d="M165.189 304.858C163.46 306.586 163.46 309.388 165.189 311.116C166.367 312.293 168.042 312.666 169.537 312.24C169.825 311.188 169.982 310.014 169.963 308.77C169.934 306.775 169.468 304.965 168.724 303.577C167.459 303.465 166.156 303.891 165.189 304.858Z" fill="#8065E0"/>
<path d="M207.92 304.6C206.191 306.328 206.191 309.13 207.92 310.858C209.105 312.043 210.792 312.413 212.294 311.976C212.55 311.026 212.697 309.982 212.715 308.879C212.747 306.725 212.265 304.765 211.458 303.322C210.195 303.207 208.89 303.63 207.92 304.6Z" fill="#8065E0"/>
<path d="M192.635 242.803H180.939L182.589 230.797H190.986L192.635 242.803Z" fill="#D0C5F3"/>
<path d="M186.849 233.205C192.983 233.205 197.956 228.234 197.956 222.102C197.956 215.971 192.983 211 186.849 211C180.715 211 175.742 215.971 175.742 222.102C175.742 228.234 180.715 233.205 186.849 233.205Z" fill="url(#paint14_radial_8686_28425)"/>
<path d="M197.109 250.139C197.636 250.139 198.057 249.684 197.999 249.159C197.381 243.609 192.673 239.292 186.956 239.292C181.238 239.292 176.531 243.609 175.913 249.159C175.854 249.684 176.275 250.139 176.802 250.139H197.109Z" fill="url(#paint15_radial_8686_28425)"/>
<path d="M196.712 332.799H177.183V352.319H196.712V332.799Z" fill="#512BD4"/>
<path d="M180.662 345.27C180.524 345.27 180.407 345.225 180.311 345.132C180.215 345.039 180.167 344.927 180.167 344.796C180.167 344.663 180.215 344.551 180.311 344.455C180.407 344.362 180.524 344.314 180.662 344.314C180.804 344.314 180.921 344.362 181.017 344.455C181.115 344.549 181.166 344.663 181.166 344.796C181.166 344.927 181.115 345.039 181.017 345.132C180.924 345.225 180.804 345.27 180.662 345.27Z" fill="white"/>
<path d="M186.183 345.193H185.285L182.919 341.465C182.861 341.372 182.81 341.273 182.77 341.172H182.749C182.767 341.281 182.775 341.513 182.775 341.87V345.196H181.981V340.123H182.938L185.224 343.763C185.32 343.915 185.384 344.019 185.41 344.075H185.424C185.4 343.941 185.389 343.712 185.389 343.393V340.123H186.18V345.193H186.183Z" fill="white"/>
<path d="M190.051 345.193H187.272V340.12H189.942V340.834H188.096V342.269H189.798V342.98H188.096V344.479H190.054V345.193H190.051Z" fill="white"/>
<path d="M194 340.834H192.577V345.193H191.756V340.834H190.336V340.12H194V340.834Z" fill="white"/>
<path d="M180.601 391.853H169.041C167.118 391.853 165.557 393.414 165.557 395.336V407.31C165.557 409.232 167.118 410.793 169.041 410.793H180.601C182.525 410.793 184.086 409.232 184.086 407.31V395.336C184.086 393.414 182.525 391.853 180.601 391.853Z" fill="url(#paint16_radial_8686_28425)"/>
<path d="M133.386 313.774C134.519 313.822 135.523 314.626 135.774 315.787C139.962 335.089 155.086 350.49 174.306 355.025C175.681 355.35 176.533 356.727 176.208 358.101C175.883 359.475 174.506 360.327 173.131 360.002C152.004 355.02 135.379 338.088 130.776 316.874C130.477 315.494 131.354 314.133 132.734 313.832C132.952 313.782 133.171 313.763 133.386 313.774Z" fill="url(#paint17_radial_8686_28425)"/>
<path d="M239.019 297.894C237.887 297.846 236.882 297.042 236.632 295.881C232.444 276.578 217.319 261.178 198.1 256.643C196.725 256.318 195.873 254.941 196.198 253.567C196.523 252.193 197.9 251.34 199.275 251.665C220.402 256.648 237.026 273.58 241.63 294.794C241.928 296.173 241.052 297.534 239.672 297.835C239.453 297.886 239.232 297.904 239.019 297.894Z" fill="url(#paint18_radial_8686_28425)"/>
<path d="M112.164 356.873L101.237 361.485L101.777 362.763L112.704 358.151L112.164 356.873Z" fill="#A08BE8"/>
<path d="M106.422 322.34L105.641 323.488L115.449 330.154L116.23 329.007L106.422 322.34Z" fill="#A08BE8"/>
</g>
<path opacity="0.8" d="M163.785 548.084H170.875C170.738 551.17 170.113 553.797 169 555.965C167.887 558.113 166.285 559.754 164.195 560.887C162.125 562.02 159.596 562.586 156.607 562.586C154.342 562.586 152.311 562.176 150.514 561.355C148.736 560.535 147.223 559.354 145.973 557.811C144.723 556.248 143.766 554.344 143.102 552.098C142.457 549.852 142.135 547.303 142.135 544.451V536.893C142.135 534.041 142.467 531.492 143.131 529.246C143.814 527 144.791 525.096 146.061 523.533C147.33 521.971 148.873 520.789 150.689 519.988C152.525 519.168 154.596 518.758 156.9 518.758C159.85 518.758 162.33 519.324 164.342 520.457C166.354 521.59 167.906 523.25 169 525.438C170.094 527.625 170.729 530.291 170.904 533.436H163.814C163.717 531.307 163.424 529.607 162.936 528.338C162.467 527.049 161.744 526.121 160.768 525.555C159.811 524.988 158.521 524.705 156.9 524.705C155.553 524.705 154.391 524.959 153.414 525.467C152.457 525.975 151.666 526.736 151.041 527.752C150.436 528.748 149.977 530.008 149.664 531.531C149.371 533.035 149.225 534.803 149.225 536.834V544.451C149.225 546.404 149.352 548.133 149.605 549.637C149.859 551.141 150.27 552.42 150.836 553.475C151.402 554.51 152.154 555.301 153.092 555.848C154.029 556.375 155.201 556.639 156.607 556.639C158.287 556.639 159.625 556.375 160.621 555.848C161.637 555.32 162.389 554.432 162.877 553.182C163.365 551.932 163.668 550.232 163.785 548.084ZM178.428 519.344H191.318C194.131 519.344 196.514 519.832 198.467 520.809C200.42 521.785 201.904 523.23 202.92 525.145C203.955 527.039 204.473 529.393 204.473 532.205C204.473 534.334 204.15 536.209 203.506 537.83C202.881 539.451 201.973 540.818 200.781 541.932C199.59 543.025 198.154 543.875 196.475 544.48L194.395 545.623H183.496L183.467 539.646H191.143C192.529 539.646 193.682 539.344 194.6 538.738C195.518 538.133 196.201 537.293 196.65 536.219C197.119 535.145 197.354 533.924 197.354 532.557C197.354 531.092 197.149 529.822 196.738 528.748C196.328 527.654 195.684 526.814 194.805 526.229C193.926 525.623 192.764 525.32 191.318 525.32H185.547V562H178.428V519.344ZM198.291 562L190.176 542.84L197.588 542.811L205.908 561.619V562H198.291ZM214.662 519.344H221.137L230.951 551.072L240.737 519.344H246.742L233.617 562H228.256L214.662 519.344ZM212.231 519.344H218.207L219.174 546.502V562H212.231V519.344ZM243.637 519.344H249.643V562H242.699V546.502L243.637 519.344Z" fill="white"/>
<g opacity="0.8">
<path d="M229 588V607H226V588H229Z" fill="white"/>
<path d="M217.78 588H221V600.525C221 601.95 220.691 603.143 220.073 604.104C219.454 605.065 218.613 605.79 217.548 606.279C216.492 606.76 215.312 607 214.006 607C212.658 607 211.456 606.76 210.4 606.279C209.344 605.79 208.511 605.065 207.902 604.104C207.301 603.143 207 601.95 207 600.525V588H210.22V600.525C210.22 601.426 210.374 602.168 210.684 602.752C210.993 603.327 211.431 603.752 211.997 604.026C212.564 604.301 213.234 604.438 214.006 604.438C214.779 604.438 215.445 604.301 216.003 604.026C216.569 603.752 217.007 603.327 217.316 602.752C217.626 602.168 217.78 601.426 217.78 600.525V588Z" fill="white"/>
<path d="M195.949 590.532L190.372 607H187L194.026 588H196.179L195.949 590.532ZM200.615 607L195.026 590.532L194.782 588H196.949L204 607H200.615ZM200.346 599.953V602.55H190.192V599.953H200.346Z" fill="white"/>
<path d="M165.297 588H168.146L173.5 602.655L178.841 588H181.69L174.619 607H172.355L165.297 588ZM164 588H166.709L167.179 600.684V607H164V588ZM180.278 588H183V607H179.808V600.684L180.278 588Z" fill="white"/>
</g>
<path opacity="0.5" fill-rule="evenodd" clip-rule="evenodd" d="M122.4 720H143.6C144.4 720 145 720.6 145 721.4V722.5C145 723.3 144.4 723.5 144.1 723.5C132.7 724.9 125.2 729.7 121 734.1V721.4C121 720.6 121.6 720 122.4 720ZM152.5 723.8C153.7 723.5 155.3 723.4 156.9 723.4C159.7 723.4 161.6 723.9 163 725.1C164.6 726.5 165.5 728.5 165.5 731.6C165.5 735.2 164.3 737.3 163 738.5C161.5 739.9 159.1 740.6 156.2 740.6C154.6 740.6 153.4 740.5 152.5 740.4V723.8ZM155.7 737.8C156.1 737.9 156.6 737.9 157 737.9C160.1 738 162.2 736 162.1 731.6C162.1 727.8 160.2 725.9 157.2 725.9C156.6 725.9 156.1 725.9 155.7 726V737.8ZM167.2 734.4C167.2 730.9 169.2 727.9 172.8 727.9C175.8 727.9 177.7 730 177.7 734C177.7 734.5 177.7 734.9 177.6 735.3H170.3C170.3 737.4 171.8 738.2 173.6 738.2C174.8 738.2 175.8 738 176.6 737.7L177.1 739.9C176 740.3 174.6 740.6 173.1 740.6C169.4 740.6 167.2 738.2 167.2 734.4ZM172.6 730.2C171 730.2 170.4 731.8 170.3 733H174.7C174.7 731.8 174.2 730.2 172.6 730.2ZM186.8 728.1L185.3 734C185 735.1 184.8 736.1 184.6 737.1H184.5C184.3 736 184.1 735 183.8 734L182.2 728.1H178.7L182.8 740.3H186L190.2 728.1H186.8ZM200.8 732.9H195.2V737.6H201.4V740.4H192V723.5H201.1V726.2H195.2V730.3H200.8V732.9ZM213.7 728.1H210.3L209.2 730.3C208.9 730.9 208.6 731.6 208.3 732.299L208.3 732.3C208.15 732 208 731.675 207.85 731.35C207.7 731.025 207.55 730.7 207.4 730.4L206.2 728.2H202.6L206.2 734.2L202.5 740.4H206L207 738C207.15 737.7 207.3 737.375 207.45 737.05L207.45 737.05C207.6 736.725 207.75 736.4 207.9 736.1C208.2 736.8 208.5 737.4 208.8 738L210 740.4H213.6L210.1 734L213.7 728.1ZM218.4 729.8C219.2 728.6 220.4 727.9 222 727.9C224.6 727.9 226.6 730.4 226.6 734C226.6 738.5 224.1 740.5 221.6 740.5C220.3 740.5 219.2 739.9 218.7 739.1V745.2H215.5V732.1C215.5 731.226 215.47 730.442 215.443 729.731V729.73V729.73V729.73V729.73V729.729V729.729V729.729L215.443 729.728C215.42 729.138 215.4 728.599 215.4 728.1H218.2L218.4 729.8ZM218.6 735.5C218.6 737.2 219.7 738.1 220.8 738.1C222.5 738.1 223.3 736.4 223.2 734.3C223.2 732.1 222.4 730.5 220.8 730.5C219.6 730.5 218.6 731.7 218.6 733.2V735.5ZM231.8 730.3L231.6 728.2H228.8C228.8 728.707 228.821 729.236 228.844 729.806L228.844 729.806C228.871 730.471 228.9 731.192 228.9 732V740.4H232.2V734C232.2 731.9 233.3 730.9 234.8 730.9C235.1 730.9 235.4 730.9 235.6 731V727.9C235.51 727.9 235.42 727.88 235.321 727.858C235.2 727.83 235.065 727.8 234.9 727.8C233.7 727.9 232.4 728.7 231.8 730.3ZM236.7 734.4C236.7 730.9 238.7 727.9 242.3 727.9C245.3 727.9 247.2 730 247.2 734C247.2 734.5 247.2 734.9 247.1 735.3H239.8C239.9 737.4 241.3 738.2 243.1 738.2C244.3 738.2 245.3 738 246.1 737.7L246.6 739.9C245.5 740.3 244.1 740.6 242.6 740.6C238.9 740.6 236.7 738.2 236.7 734.4ZM242.1 730.2C240.5 730.2 239.9 731.8 239.8 733H244.2C244.2 731.8 243.7 730.2 242.1 730.2ZM254 733C252.6 732.4 252.1 732.1 252.1 731.4C252.1 730.7 252.6 730.2 253.6 730.2C254.5 730.2 255.4 730.5 255.9 730.8L256.5 728.5C255.8 728.1 254.7 727.8 253.5 727.8C250.8 727.8 249 729.5 249 731.7C249 733 249.8 734.3 252.1 735.3C253.4 735.9 253.9 736.3 253.9 737C253.9 737.7 253.4 738.2 252.2 738.2C251.2 738.2 250 737.8 249.3 737.4L248.7 739.7C249.5 740.2 250.8 740.5 252.1 740.5C255.2 740.5 256.9 739 256.9 736.6C257 735 256 733.8 254 733ZM261.8 731.4C261.8 732.1 262.3 732.4 263.7 733C265.8 733.8 266.7 735 266.6 736.6C266.6 739 264.9 740.5 261.8 740.5C260.5 740.5 259.2 740.2 258.4 739.7L259 737.4C259.7 737.8 260.9 738.2 261.9 738.2C263.1 738.2 263.6 737.7 263.6 737C263.6 736.3 263.1 735.9 261.8 735.3C259.5 734.3 258.7 733 258.7 731.7C258.7 729.5 260.5 727.8 263.2 727.8C264.4 727.8 265.5 728.1 266.2 728.5L265.6 730.8C265.1 730.5 264.2 730.2 263.3 730.2C262.3 730.2 261.8 730.7 261.8 731.4ZM122.422 739.567L122.422 739.567C121.946 740.193 121.552 740.711 121.3 741.3C121.2 741.4 121 741.9 121 742.2V742.6C121 743.4 121.6 744 122.4 744H143.6C144.4 744 145 743.4 145 742.6V726.3C133.4 728.3 126.3 734.6 122.7 739.2C122.605 739.327 122.512 739.449 122.422 739.567ZM269.9 727.4C270.3 727.3 270.4 727.1 270.4 726.8C270.4 726.6 270.3 726.4 270.2 726.3C270.1 726.2 269.8 726.1 269.6 726.1H268.9V728.3H269.3V727.4H269.5C269.6 727.4 269.7 727.5 269.8 727.7L270 728.3H270.5L270.2 727.7L269.9 727.4ZM269.5 727.2H269.2V726.6H269.5C269.8 726.6 269.9 726.7 269.9 726.9C269.9 727 269.9 727.1 269.8 727.1C269.8 727.2 269.7 727.2 269.5 727.2ZM269.6 725.6C270.1 725.6 270.6 725.8 270.9 726.1C271.2 726.4 271.4 726.8 271.4 727.4C271.4 727.9 271.3 728.4 270.9 728.7C270.5 729 270.1 729.2 269.6 729.2C269.1 729.2 268.6 729 268.3 728.7C268 728.3 267.8 727.9 267.8 727.4C267.8 726.9 267.9 726.4 268.3 726.1C268.6 725.8 269.1 725.6 269.6 725.6ZM269.5 728.8C269.9 728.8 270.3 728.7 270.6 728.4C270.9 728.1 271.1 727.8 271 727.3C271 726.9 270.9 726.5 270.6 726.2C270.3 725.9 269.9 725.8 269.5 725.8C269.1 725.8 268.7 725.9 268.4 726.2C268.1 726.5 268 726.9 268 727.3C268 727.7 268.1 728.1 268.4 728.4C268.7 728.7 269.1 728.8 269.5 728.8Z" fill="white"/>
</g>
<defs>
<filter id="filter0_f_8686_28425" x="-9" y="172" width="412" height="412" filterUnits="userSpaceOnUse" color-interpolation-filters="sRGB">
<feFlood flood-opacity="0" result="BackgroundImageFix"/>
<feBlend mode="normal" in="SourceGraphic" in2="BackgroundImageFix" result="shape"/>
<feGaussianBlur stdDeviation="50" result="effect1_foregroundBlur_8686_28425"/>
</filter>
<radialGradient id="paint0_radial_8686_28425" cx="0" cy="0" r="1" gradientUnits="userSpaceOnUse" gradientTransform="translate(197 378) rotate(90) scale(106)">
<stop stop-color="#9E89E8"/>
<stop offset="1" stop-color="#7615EA" stop-opacity="0"/>
</radialGradient>
<linearGradient id="paint1_linear_8686_28425" x1="198.76" y1="359.258" x2="198.76" y2="392.291" gradientUnits="userSpaceOnUse">
<stop offset="0.2368" stop-color="#958FE7"/>
<stop offset="0.4881" stop-color="#BBB7EF"/>
</linearGradient>
<linearGradient id="paint2_linear_8686_28425" x1="174.373" y1="359.258" x2="174.373" y2="392.291" gradientUnits="userSpaceOnUse">
<stop offset="0.2368" stop-color="#958FE7"/>
<stop offset="0.4881" stop-color="#BBB7EF"/>
</linearGradient>
<linearGradient id="paint3_linear_8686_28425" x1="131.404" y1="319.032" x2="100.7" y2="372.235" gradientUnits="userSpaceOnUse">
<stop offset="0.1197" stop-color="#958FE7"/>
<stop offset="0.2551" stop-color="#BBB7EF"/>
</linearGradient>
<linearGradient id="paint4_linear_8686_28425" x1="253.292" y1="312.593" x2="276.073" y2="304.298" gradientUnits="userSpaceOnUse">
<stop offset="0.1918" stop-color="#958FE7"/>
<stop offset="0.4956" stop-color="#BBB7EF"/>
</linearGradient>
<radialGradient id="paint5_radial_8686_28425" cx="0" cy="0" r="1" gradientUnits="userSpaceOnUse" gradientTransform="translate(252.425 305.106) scale(21.2351 21.2263)">
<stop stop-color="#8065E0"/>
<stop offset="1" stop-color="#512BD4"/>
</radialGradient>
<radialGradient id="paint6_radial_8686_28425" cx="0" cy="0" r="1" gradientUnits="userSpaceOnUse" gradientTransform="translate(119.354 306.519) scale(18.7521 18.7443)">
<stop stop-color="#8065E0"/>
<stop offset="1" stop-color="#512BD4"/>
</radialGradient>
<radialGradient id="paint7_radial_8686_28425" cx="0" cy="0" r="1" gradientUnits="userSpaceOnUse" gradientTransform="translate(202.581 269.942) scale(82.3555 82.3213)">
<stop offset="0.186" stop-color="#A08BE8"/>
<stop offset="0.7272" stop-color="#8065E0"/>
</radialGradient>
<radialGradient id="paint8_radial_8686_28425" cx="0" cy="0" r="1" gradientUnits="userSpaceOnUse" gradientTransform="translate(148.174 289.209) scale(70.1068 70.0777)">
<stop offset="0.0933" stop-color="#E1DFDD"/>
<stop offset="0.6573" stop-color="white"/>
</radialGradient>
<radialGradient id="paint9_radial_8686_28425" cx="0" cy="0" r="1" gradientUnits="userSpaceOnUse" gradientTransform="translate(139.263 341.624) scale(37.1072 37.0918)">
<stop offset="0.4614" stop-color="#A08BE8"/>
<stop offset="0.5268" stop-color="#A793EA"/>
<stop offset="0.8352" stop-color="#C5B7F0"/>
<stop offset="1" stop-color="#D0C5F3"/>
</radialGradient>
<radialGradient id="paint10_radial_8686_28425" cx="0" cy="0" r="1" gradientUnits="userSpaceOnUse" gradientTransform="translate(174.28 315.856) scale(50.5272 50.5062)">
<stop stop-color="#512BD4"/>
<stop offset="0.4098" stop-color="#6645D9"/>
<stop offset="0.7102" stop-color="#7659DD"/>
<stop offset="0.9583" stop-color="#8065E0"/>
</radialGradient>
<radialGradient id="paint11_radial_8686_28425" cx="0" cy="0" r="1" gradientUnits="userSpaceOnUse" gradientTransform="translate(279.407 257.609) scale(22.7499 22.7404)">
<stop stop-color="#A08BE8"/>
<stop offset="0.9913" stop-color="#8065E0"/>
</radialGradient>
<radialGradient id="paint12_radial_8686_28425" cx="0" cy="0" r="1" gradientUnits="userSpaceOnUse" gradientTransform="translate(199.443 394.874) scale(15.3042 15.2978)">
<stop stop-color="#8065E0"/>
<stop offset="0.8778" stop-color="#512BD4"/>
</radialGradient>
<radialGradient id="paint13_radial_8686_28425" cx="0" cy="0" r="1" gradientUnits="userSpaceOnUse" gradientTransform="translate(117.25 367.663) scale(20.1459 20.1375)">
<stop offset="0.0841" stop-color="#A08BE8"/>
<stop offset="1" stop-color="#8065E0"/>
</radialGradient>
<radialGradient id="paint14_radial_8686_28425" cx="0" cy="0" r="1" gradientUnits="userSpaceOnUse" gradientTransform="translate(187.414 215.725) scale(24.2612 24.2511)">
<stop offset="0.1717" stop-color="#A08BE8"/>
<stop offset="0.9987" stop-color="#8065E0"/>
</radialGradient>
<radialGradient id="paint15_radial_8686_28425" cx="0" cy="0" r="1" gradientUnits="userSpaceOnUse" gradientTransform="translate(187.332 242.13) scale(14.7038 14.6977)">
<stop stop-color="#8065E0"/>
<stop offset="1" stop-color="#512BD4"/>
</radialGradient>
<radialGradient id="paint16_radial_8686_28425" cx="0" cy="0" r="1" gradientUnits="userSpaceOnUse" gradientTransform="translate(173.622 392.513) scale(16.3049 16.2981)">
<stop stop-color="#8065E0"/>
<stop offset="1" stop-color="#512BD4"/>
</radialGradient>
<radialGradient id="paint17_radial_8686_28425" cx="0" cy="0" r="1" gradientUnits="userSpaceOnUse" gradientTransform="translate(153.506 336.904) rotate(-177.525) scale(22.9695 22.96)">
<stop stop-color="#BDB9F0"/>
<stop offset="0.5336" stop-color="#C3BCEB" stop-opacity="0.4"/>
<stop offset="0.6108" stop-color="#CEC3E2" stop-opacity="0.3338"/>
<stop offset="0.8606" stop-color="#EDD6C9" stop-opacity="0.1195"/>
<stop offset="1" stop-color="#F9DDBF" stop-opacity="0"/>
</radialGradient>
<radialGradient id="paint18_radial_8686_28425" cx="0" cy="0" r="1" gradientUnits="userSpaceOnUse" gradientTransform="translate(218.9 274.758) rotate(2.47484) scale(22.9695 22.96)">
<stop stop-color="#BDB9F0"/>
<stop offset="0.5266" stop-color="#C3BCEB" stop-opacity="0.7"/>
<stop offset="0.605" stop-color="#CEC3E2" stop-opacity="0.5841"/>
<stop offset="0.8586" stop-color="#EDD6C9" stop-opacity="0.2092"/>
<stop offset="1" stop-color="#F9DDBF" stop-opacity="0"/>
</radialGradient>
<clipPath id="clip0_8686_28425">
<rect width="393" height="852" fill="white"/>
</clipPath>
<clipPath id="clip1_8686_28425">
<rect width="198" height="239" fill="white" transform="translate(98 211)"/>
</clipPath>
</defs>
</svg>
